<?xml version="1.0" encoding="utf-8"?>
<!-- Generator: Adobe Illustrator 19.0.0, SVG Export Plug-In . SVG Version: 6.00 Build 0)  -->
<svg version="1.1" id="圖層_1" xmlns="http://www.w3.org/2000/svg" xmlns:xlink="http://www.w3.org/1999/xlink" x="0px" y="0px"
	 viewBox="39 -62.3 584.2 582.6" enable-background="new 39 -62.3 584.2 582.6" xml:space="preserve">
<g id="XMLID_613_">
	<g id="XMLID_614_">
		<g id="XMLID_615_">
			<g id="XMLID_616_">
				<g id="XMLID_22_">
					<path id="XMLID_55_" fill="#221714" d="M407,475.2c-9.8,0-19.3-2.5-27.8-7.4c-1.8-1-2.4-3.3-1.4-5.1s3.3-2.4,5.1-1.4
						c12.4,7.2,27.3,8.4,41.9,3.3c13.7-4.8,24.8-14.3,29-25c0.8-1.9,2.9-2.9,4.9-2.1s2.9,2.9,2.1,4.9c-5,12.7-17.8,23.9-33.5,29.3
						C420.6,474.1,413.7,475.2,407,475.2z"/>
				</g>
			</g>
			<g id="XMLID_622_">
				<g id="XMLID_14_">
					<g id="XMLID_182_">
						<path id="XMLID_54_" fill="#FFE600" d="M459.8,456.5c-8.8,0-15.9-7.1-15.9-15.9s7.1-15.9,15.9-15.9c8.7,0,15.9,7.1,15.9,15.9
							S468.5,456.5,459.8,456.5z"/>
					</g>
				</g>
				<g id="XMLID_10_">
					<g id="XMLID_177_">
						<path id="XMLID_178_" fill="#221714" d="M459.8,428.5c6.7,0,12.1,5.4,12.1,12.1c0,6.7-5.4,12.1-12.1,12.1s-12.1-5.4-12.1-12.1
							C447.7,433.9,453.1,428.5,459.8,428.5 M459.8,421c-10.8,0-19.6,8.8-19.6,19.6s8.8,19.6,19.6,19.6c10.8,0,19.6-8.8,19.6-19.6
							S470.6,421,459.8,421L459.8,421z"/>
					</g>
				</g>
			</g>
		</g>
		<g id="XMLID_623_">
			<g id="XMLID_629_">
				<g id="XMLID_9_">
					<g id="XMLID_172_">
						<path id="XMLID_53_" fill="#FFE600" d="M378.8,516.7c-12.1,0-14.7-19.7-14.7-36.2c0-7.7-14.9-9-26.9-9.1h-1.6
							c-1.1,0-4.7,0-4.7,0s-3.5,0-4.6,0H324c-11.9,0.2-26.2,1.6-26.2,9.1c0,16.5-2.5,36.2-14.7,36.2c-9.6,0-10.5-11.7-11.8-28
							c-0.5-6.5-1.1-13.8-2.3-21.9c-3.9-27.6-0.5-91.9,4.9-126.7l0.4-2.8l48.1-5.1v-1.7l8.4,0.9l8.4-0.9v1.8l48.1,5.1l0.4,2.8
							c5.4,34.9,8.8,99.2,4.9,126.7c-1.1,8-1.7,15.4-2.3,21.9C389.3,505,388.3,516.7,378.8,516.7z"/>
					</g>
				</g>
				<g id="XMLID_6_">
					<g id="XMLID_167_">
						<path id="XMLID_168_" fill="#221714" d="M335.6,334.6v1l48.6,5.1c5.5,35.1,8.7,98.6,4.9,125.6c-3.8,27-1.6,46.6-10.4,46.6
							c-8.7,0-10.9-18.2-10.9-32.4c0-11.5-17.9-12.8-32.2-12.9l0,0c-1.4,0-3,0-4.7,0s-3.2,0-4.7,0l0,0c-14.3,0.1-32.2,1.4-32.2,12.9
							c0,14.2-2.2,32.4-10.9,32.4c-8.7,0-6.6-19.6-10.4-46.6s-0.5-90.5,4.9-125.6l48.6-5.1v-1l4.7,0.5L335.6,334.6 M343.1,326.3
							l-8.3,0.9l-3.9,0.4l-3.9-0.4l-8.3-0.9v2.5l-41.9,4.4l-5.7,0.6l-0.9,5.7c-5.5,35.1-8.9,100-4.9,127.8
							c1.1,7.9,1.7,15.2,2.2,21.6c0.6,8,1.2,14.3,2.4,19.2c1.2,4.6,4.5,12.2,13.1,12.2c15.2,0,18.4-21.7,18.4-39.9
							c0-0.9,1.1-5,22.9-5.4h1.8c1.2,0,2.6,0,4,0h0.7h0.7c1.4,0,2.7,0,4,0h2.2c21.5,0.4,22.6,4.5,22.6,5.4
							c0,18.2,3.2,39.9,18.4,39.9c8.6,0,11.9-7.7,13.1-12.2c1.3-4.9,1.8-11.2,2.4-19.2c0.5-6.4,1.1-13.7,2.2-21.6
							c3.9-27.9,0.5-92.7-4.9-127.8l-0.9-5.7l-5.7-0.6l-41.9-4.4L343.1,326.3L343.1,326.3z"/>
					</g>
				</g>
			</g>
			<g id="XMLID_630_">
				<g id="XMLID_163_">
					<ellipse id="XMLID_52_" fill="#FFFFCE" cx="331" cy="386.5" rx="36.5" ry="68"/>
				</g>
			</g>
		</g>
	</g>
	<g id="XMLID_631_">
		<g id="XMLID_637_">
			<g id="XMLID_5_">
				<g id="XMLID_158_">
					<path id="XMLID_51_" fill="#6A3906" d="M330.9,401.3c-12,0-19.2-7.7-22.8-13.1c-3.9,3.8-10.6,8.6-19.8,8.6
						c-1.7,0-3.5-0.2-5.2-0.5c-12-2.4-17.4-11.6-19.7-17.6c-3.8,2.3-9.5,4.9-16.1,4.9c-3.4,0-6.8-0.7-9.9-2.1
						c-10.8-4.8-14.3-15.3-15.4-21.6c-3,0.9-7,1.8-11.4,1.8c-5.5,0-10.4-1.4-14.6-4.2c-9.6-6.4-10.9-18-10.7-24.6
						c-1,0.1-2.2,0.1-3.5,0.1c-6.4,0-15.3-1.3-21.6-7.7c-7.6-7.7-6.7-19.1-5.3-25.7c-6-0.3-17.1-2.4-23.1-13.3
						c-5.7-10.3-2.9-20.2-0.1-26c-7.4-1.9-16.6-6.9-19.5-18.1c-2.8-11,1.3-19.7,5-24.7c-6.5-2.7-13.9-9.2-14.9-22.1
						c-1-12.4,4.4-20.1,9.7-24.2c-5.5-4.5-11-12.5-9.7-23.8c1.3-11.7,8.9-18.4,15.3-21.5c-3.7-4.9-8.1-13.7-5.4-25.2
						c2.8-11.4,12.3-16.5,19.7-18.2c-2.5-5.8-5.2-15.9-0.2-25.8c5.2-10.4,16.4-12.9,23-13.3c-1.5-6.4-2.5-17.5,5.5-25.8
						c5-5.3,12.2-8.1,20.7-8.1c1.5,0,2.9,0.1,4.1,0.2c-0.4-6.5,0.8-17.1,10.9-24.3c4.6-3.2,9.7-4.9,15.2-4.9c4.1,0,7.8,0.9,10.6,1.9
						c1.1-7.2,5.2-16.5,15.7-21.1c3.5-1.5,7.1-2.3,10.7-2.3c6.4,0,11.7,2.4,15.2,4.7c2.6-6.8,8.5-15,19.7-17.2
						c1.9-0.4,3.7-0.6,5.6-0.6c8.8,0,15.2,4.3,19,8c3.6-6,10.8-12.5,23.2-12.5c12.5,0,19.7,6.5,23.3,12.6c3.9-3.7,10.5-8.2,19-8.2
						c1.9,0,3.8,0.2,5.7,0.7c11.5,2.7,17,11.6,19.4,17.5c3.7-2.3,9.3-5,15.9-5c3.6,0,7.1,0.8,10.4,2.3c10.6,4.9,14.2,14.7,15.4,21
						c2.8-1.1,6.4-2.1,10.6-2.1c5.5,0,10.8,1.7,15.5,5.1c9.5,6.8,11.6,16.7,11.1,23.9c1.4-0.2,3.1-0.4,4.8-0.4c8,0,14.9,3,19.9,8.7
						c7.8,8.9,7.1,19.1,5.6,25.4c6.1,0.2,16.2,2.4,22.6,13.5c5.9,10.1,3.8,19.9,0.4,26.3c6.3,1.8,15.7,6.3,19.2,17.7
						c3.4,11.3-1.4,20.4-5.3,25.5c5.8,2.9,14.1,9.1,15.3,21.5c1.1,12.2-5.6,20.1-10.5,24.1c5.1,4.3,12.3,12.5,10.5,24.2
						c-1.8,11.5-10.2,18-15.6,21c3.8,5.1,9,14.6,5.7,25.7c-3.4,11.3-13.7,15.9-20,17.7c2.7,6.3,6.1,17.7,0.3,26.5
						c-5.7,8.5-16.7,11.5-23,12.4c1.5,6.4,2.7,18.1-5.2,26.3c-4.9,5.2-12.2,7.9-21,7.9c-1.3,0-2.6-0.1-3.7-0.2
						c0.6,7.7-1.3,18.5-11.2,24.5c-4.7,2.8-9.8,4.3-15.3,4.3c-4,0-7.6-0.8-10.3-1.7c-1,7.4-5.1,17-15.9,21.3
						c-3.4,1.4-6.9,2.1-10.4,2.1c-6.6,0-12-2.4-15.5-4.7c-2.3,6.1-7.7,15.3-19.8,17.4c-1.6,0.3-3.3,0.4-4.9,0.4
						c-9.3,0-16.1-4.8-20-8.5C350.1,393.6,342.9,401.3,330.9,401.3z"/>
				</g>
			</g>
			<g id="XMLID_4_">
				<g id="XMLID_153_">
					<path id="XMLID_154_" fill="#221714" d="M330.9-54.8C349.5-54.8,353-39,353-39s7.8-11.4,20.1-11.4c1.5,0,3.1,0.2,4.8,0.6
						c15.1,3.6,18.3,20,18.3,20s7.7-7.4,17.8-7.4c2.8,0,5.7,0.6,8.8,2c14.2,6.6,13.8,23.4,13.8,23.4s5.8-4.2,13.8-4.2
						c4.1,0,8.7,1.1,13.4,4.4c13.8,9.8,8.6,25.8,8.6,25.8s4.1-1.5,9.5-1.5c5.3,0,11.9,1.5,17.1,7.4c10.5,11.9,3.1,27,3.1,27
						s1.7-0.4,4.2-0.4c5.4,0,14.7,1.6,20.5,11.6c8.6,14.8-2.6,27-2.6,27s17.3,1,21.8,16.2c4.5,15.1-8.2,25.9-8.2,25.9
						s16.5,4,18,20.3s-13.4,23.6-13.4,23.6s15.8,8.7,13.4,23.6c-2.4,15-18,20.3-18,20.3s12.5,11.7,8.2,25.9
						c-4.3,14.2-21.8,16.2-21.8,16.2s9.7,16.4,2.6,27c-7.1,10.7-24.7,11.3-24.7,11.3s6.5,16.9-3.1,27c-5.2,5.5-12.7,6.7-18.3,6.7
						c-4.7,0-8.2-0.9-8.2-0.9s5,17.5-8.6,25.8c-4.6,2.8-9.2,3.7-13.3,3.7c-7.9,0-13.8-3.5-13.8-3.5s1.4,17.3-13.8,23.4
						c-3.2,1.3-6.2,1.8-9,1.8c-10.5,0-17.6-7.2-17.6-7.2s-2.6,17.2-18.3,20c-1.5,0.3-2.9,0.4-4.2,0.4c-13.1,0-20.7-11.2-20.7-11.2
						s-6.5,15.8-22.1,15.8S309,381.6,309,381.6s-7.6,11.3-20.4,11.3c-1.4,0-2.9-0.1-4.5-0.4c-15.6-3.1-18.3-20-18.3-20
						s-8.1,7.2-18.3,7.2c-2.7,0-5.5-0.5-8.4-1.8c-13.7-6.1-13.8-23.4-13.8-23.4s-6.7,3.3-14.6,3.3c-4.1,0-8.5-0.9-12.5-3.6
						c-11.8-7.9-8.6-25.8-8.6-25.8s-3.2,0.7-7.6,0.7c-5.8,0-13.6-1.2-18.9-6.6c-9.5-9.5-3.1-27-3.1-27s-1.2,0.2-3.2,0.2
						c-5.3,0-16-1.4-21.5-11.5c-7.6-13.8,2.6-27,2.6-27s-17.8-0.6-21.8-16.2s8.2-25.9,8.2-25.9s-16.5-1.1-18-20.3
						c-1.5-19.2,13.4-23.6,13.4-23.6s-15.3-6.7-13.4-23.6c1.9-17,18-20.3,18-20.3s-12-10.2-8.2-25.9s21.8-16.2,21.8-16.2
						s-9.2-13.9-2.6-27c5.1-10.2,17.3-11.4,22.4-11.4c1.4,0,2.3,0.1,2.3,0.1s-7-16.4,3.1-27c5.4-5.6,12.5-6.9,18-6.9
						c4.9,0,8.5,1,8.5,1s-4.5-16.5,8.6-25.8c4.4-3.1,9-4.2,13.1-4.2c7.9,0,14.1,3.9,14.1,3.9s-1.4-16.8,13.8-23.4
						c3.3-1.4,6.4-2,9.2-2c10.4,0,17.4,7.4,17.4,7.4s2.1-16.8,18.3-20c1.7-0.3,3.3-0.5,4.8-0.5c13.1,0,20.1,11.3,20.1,11.3
						S312.3-54.8,330.9-54.8 M330.9-62.3c-11.6,0-19.3,5.1-23.9,10.7c-4.4-3.3-10.5-6.3-18.3-6.3c-2.1,0-4.2,0.2-6.3,0.6
						c-11.3,2.3-17.4,9.4-20.7,15.7c-3.6-1.8-8.2-3.2-13.5-3.2c-4.1,0-8.3,0.9-12.2,2.6c-10.7,4.7-15.2,13-17,19.8
						c-2.3-0.6-5-0.9-7.8-0.9c-6.3,0-12.2,1.9-17.4,5.5c-9.6,6.7-12.1,16.2-12.5,23.4c-0.1,0-0.2,0-0.3,0c-9.5,0-17.6,3.2-23.4,9.2
						c-7.6,7.9-8.1,17.9-7.1,25.1c-14,2.3-19.9,10.9-21.9,14.9c-4.6,9.2-3.4,18.4-1.3,25c-7.6,2.8-15.8,8.7-18.5,19.8
						c-2.5,10.5,0.3,19,3.7,24.8c-5.9,3.8-12.4,10.6-13.7,22.4c-1.2,10.7,2.9,18.7,8,24.1c-4.9,5.1-8.9,13.1-8,24.6
						c1,12.2,7,19.4,13.3,23.3c-3.3,5.8-5.8,14.1-3.2,24.2c2.8,10.8,10.7,16.6,18.1,19.5c-2.3,6.6-3.5,15.9,1.8,25.5
						c4.5,8.1,12.3,13.3,22,14.9c-0.9,7.5-0.3,17.7,7,25.1c5.7,5.7,14,8.7,24,8.8c0.5,7.5,3,17.6,12.3,23.8
						c4.8,3.2,10.4,4.8,16.7,4.8c3.2,0,6.1-0.4,8.7-1c2,7,6.5,15.9,16.7,20.4c3.6,1.6,7.4,2.4,11.4,2.4c5.5,0,10.5-1.6,14.4-3.4
						c3.3,6.4,9.5,13.9,20.8,16.1c2,0.4,4,0.6,5.9,0.6c8.2,0,14.7-3.4,19.2-6.9c4.6,5.5,12.1,11.4,23.4,11.4s18.8-5.9,23.4-11.4
						c4.6,3.5,11.1,6.9,19.4,6.9c1.8,0,3.7-0.2,5.5-0.5c11.4-2,17.6-9.4,20.9-15.9c3.7,1.7,8.4,3.2,13.8,3.2c4,0,8-0.8,11.8-2.3
						c11.1-4.5,15.6-13.1,17.3-20.2c2.2,0.5,4.8,0.8,7.5,0.8c6.2,0,11.9-1.6,17.2-4.8c9.7-5.9,12.8-15.6,13.1-23.8
						c9.8,0,18-3.2,23.6-9.1c7.6-8,7.9-18.5,6.8-25.9c7-1.6,16.3-5.2,21.8-13.4c4.1-6.2,4.9-14.4,2.3-23.7c-0.3-0.9-0.5-1.7-0.8-2.6
						c6.8-2.7,15.4-8.1,18.7-18.9c3.1-10.4-0.3-19.6-4.1-25.7c5.7-4,12.4-10.8,14.1-21.5c1.3-8.4-1.3-16.6-7.6-23.6
						c-0.3-0.4-0.7-0.8-1-1.1c4.9-5,9.8-13,8.7-24.4c-1.1-11.6-7.7-18.5-13.7-22.4c3.6-6,6.7-14.8,3.6-25.3
						c-3.2-10.8-11-16.1-17.7-18.8c2.6-7,3.3-16.4-2.2-26c-6-10.3-14.7-13.8-21.5-14.9c0.9-6.9,0.1-16.2-7.2-24.5
						c-5.7-6.5-13.6-10-22.7-10c-0.4,0-0.7,0-1.1,0c-0.5-7.5-3.6-16.4-12.6-22.9c-5.4-3.9-11.4-5.8-17.7-5.8c-2.9,0-5.6,0.4-8,1
						c-2-6.7-6.5-15-16.4-19.6c-3.8-1.8-7.8-2.7-11.9-2.7c-5.6,0-10.4,1.6-14.3,3.5c-3.4-6.2-9.5-13.4-20.2-15.9
						c-2.2-0.5-4.4-0.8-6.5-0.8c-7.6,0-13.8,3.1-18.2,6.5C350.3-57.1,342.6-62.3,330.9-62.3L330.9-62.3z"/>
				</g>
			</g>
		</g>
		<g id="XMLID_638_">
			<g id="XMLID_639_">
				<g id="XMLID_640_">
					<g id="XMLID_641_">
						<g id="XMLID_149_">
							<circle id="XMLID_50_" fill="#FFE600" cx="206" cy="97.5" r="43.5"/>
						</g>
					</g>
					<g id="XMLID_642_">
						<g id="XMLID_146_">
							<circle id="XMLID_49_" fill="#FFFFCE" cx="206" cy="97.5" r="25.3"/>
						</g>
					</g>
				</g>
				<g id="XMLID_643_">
					<g id="XMLID_644_">
						<g id="XMLID_142_">
							<path id="XMLID_48_" fill="#FFE600" d="M499.4,97.5c0,24-19.5,43.5-43.5,43.5s-43.5-19.5-43.5-43.5S431.9,54,455.9,54
								S499.4,73.5,499.4,97.5z"/>
						</g>
					</g>
					<g id="XMLID_645_">
						<g id="XMLID_139_">
							<circle id="XMLID_47_" fill="#FFFFCE" cx="455.9" cy="97.5" r="25.3"/>
						</g>
					</g>
				</g>
				<g id="XMLID_646_">
					<g id="XMLID_135_">
						<path id="XMLID_46_" fill="#FFE600" d="M493.8,203.4c0,90.4-73.3,163.7-163.7,163.7s-163.7-73.3-163.7-163.7
							S239.7,39.7,330.1,39.7C420.6,39.8,493.8,113,493.8,203.4z"/>
					</g>
				</g>
			</g>
			<g id="XMLID_647_">
				<g id="XMLID_648_">
					<g id="XMLID_649_">
						<g id="XMLID_131_">
							<path id="XMLID_45_" fill="#231815" d="M290.7,175.9c0,17.5-14.2,31.7-31.7,31.7s-31.7-14.2-31.7-31.7s14.2-31.7,31.7-31.7
								C276.5,144.2,290.7,158.4,290.7,175.9z"/>
						</g>
					</g>
					<g id="XMLID_650_">
						<g id="XMLID_128_">
							<circle id="XMLID_44_" fill="#FFFFFF" cx="251.7" cy="169.4" r="16.7"/>
						</g>
					</g>
					<g id="XMLID_651_">
						<g id="XMLID_125_">
							<circle id="XMLID_43_" fill="#FFFFFF" cx="261.7" cy="195" r="8.4"/>
						</g>
					</g>
					<g id="XMLID_652_">
						<g id="XMLID_122_">
							<circle id="XMLID_42_" fill="#FFFFFF" cx="278.7" cy="177.7" r="8.4"/>
						</g>
					</g>
				</g>
				<g id="XMLID_653_">
					<g id="XMLID_654_">
						<g id="XMLID_115_">
							<path id="XMLID_41_" fill="#231815" d="M434.6,175.9c0,17.5-14.2,31.7-31.7,31.7s-31.7-14.2-31.7-31.7s14.2-31.7,31.7-31.7
								C420.4,144.2,434.6,158.4,434.6,175.9z"/>
						</g>
					</g>
					<g id="XMLID_655_">
						<g id="XMLID_112_">
							<circle id="XMLID_40_" fill="#FFFFFF" cx="395.6" cy="169.4" r="16.7"/>
						</g>
					</g>
					<g id="XMLID_656_">
						<g id="XMLID_109_">
							<circle id="XMLID_39_" fill="#FFFFFF" cx="405.6" cy="195" r="8.4"/>
						</g>
					</g>
					<g id="XMLID_657_">
						<g id="XMLID_106_">
							<circle id="XMLID_38_" fill="#FFFFFF" cx="422.5" cy="177.7" r="8.4"/>
						</g>
					</g>
				</g>
			</g>
			<g id="XMLID_658_">
				<g id="XMLID_2825_">
					<g id="XMLID_101_">
						<path id="XMLID_37_" fill="#FF6699" d="M356.1,269.1c-0.3,13.9-11.8,24.9-25.7,24.6c-13.9-0.3-24.9-11.8-24.6-25.7
							c0.3-13.9,11.8-24.9,25.7-24.6C345.4,243.7,356.4,255.2,356.1,269.1z"/>
					</g>
				</g>
				<g id="XMLID_659_">
					<g id="XMLID_18_">
						<path id="XMLID_36_" fill="#FFE600" d="M270.9,240.2c0,16.3,13.2,29.5,29.5,29.5s29.5-13.2,29.5-29.5h1.8
							c0,16.3,13.2,29.5,29.6,29.5c16.3,0,29.5-13.2,29.5-29.5"/>
					</g>
					<g id="XMLID_20_">
						<path id="XMLID_35_" fill="#221714" d="M361.4,274.2c-13.3,0-24.9-7.7-30.5-18.9c-5.6,11.2-17.1,18.9-30.5,18.9
							c-18.8,0-34-15.3-34-34c0-2.5,2-4.5,4.5-4.5s4.5,2,4.5,4.5c0,13.8,11.2,25.1,25.1,25.1c13.8,0,25.1-11.2,25.1-25.1
							c0-2.5,2-4.5,4.5-4.5h1.8c2.5,0,4.5,2,4.5,4.5c0,13.8,11.2,25.1,25.1,25.1c13.8,0,25-11.2,25-25.1c0-2.5,2-4.5,4.5-4.5
							s4.5,2,4.5,4.5C395.5,258.9,380.2,274.2,361.4,274.2z"/>
					</g>
				</g>
				<g id="XMLID_660_">
					<g id="XMLID_92_">
						<ellipse id="XMLID_34_" fill="#231815" cx="331" cy="233.2" rx="23.3" ry="13"/>
					</g>
				</g>
			</g>
		</g>
		<g id="XMLID_661_">
			<g id="XMLID_662_">
				<g id="XMLID_19_">
					<path id="XMLID_33_" fill="#221714" d="M196.4,214.4H151c-2.1,0-3.7-1.7-3.7-3.7s1.7-3.7,3.7-3.7h45.4c2.1,0,3.7,1.7,3.7,3.7
						S198.5,214.4,196.4,214.4z"/>
				</g>
			</g>
			<g id="XMLID_663_">
				<g id="XMLID_15_">
					<path id="XMLID_32_" fill="#221714" d="M201.3,235h-58.1c-2.1,0-3.7-1.7-3.7-3.7c0-2.1,1.7-3.7,3.7-3.7h58.1
						c2.1,0,3.7,1.7,3.7,3.7S203.4,235,201.3,235z"/>
				</g>
			</g>
			<g id="XMLID_664_">
				<g id="XMLID_21_">
					<path id="XMLID_31_" fill="#221714" d="M204.9,255.5h-48.3c-2.1,0-3.7-1.7-3.7-3.7c0-2.1,1.7-3.7,3.7-3.7h48.3
						c2.1,0,3.7,1.7,3.7,3.7S206.9,255.5,204.9,255.5z"/>
				</g>
			</g>
		</g>
		<g id="XMLID_665_">
			<g id="XMLID_666_">
				<g id="XMLID_23_">
					<path id="XMLID_30_" fill="#221714" d="M509.6,214.4h-45.4c-2.1,0-3.7-1.7-3.7-3.7s1.7-3.7,3.7-3.7h45.4c2.1,0,3.7,1.7,3.7,3.7
						S511.6,214.4,509.6,214.4z"/>
				</g>
			</g>
			<g id="XMLID_667_">
				<g id="XMLID_24_">
					<path id="XMLID_29_" fill="#221714" d="M517.4,235h-58.1c-2.1,0-3.7-1.7-3.7-3.7c0-2.1,1.7-3.7,3.7-3.7h58.1
						c2.1,0,3.7,1.7,3.7,3.7C521.2,233.3,519.5,235,517.4,235z"/>
				</g>
			</g>
			<g id="XMLID_668_">
				<g id="XMLID_25_">
					<path id="XMLID_28_" fill="#221714" d="M504,255.5h-48.3c-2.1,0-3.7-1.7-3.7-3.7c0-2.1,1.7-3.7,3.7-3.7H504
						c2.1,0,3.7,1.7,3.7,3.7C507.8,253.8,506,255.5,504,255.5z"/>
				</g>
			</g>
		</g>
	</g>
	<g id="XMLID_119_">
		<path id="XMLID_3_" fill="#FFE600" d="M269.2,405.8c0,0-176.7-59.5-213-96.4c-40.4-40.9,20.1-95.3,54.4-44.7
			c46.6,68.9,170.6,131.8,170.6,131.8"/>
		<path id="XMLID_7_" fill="#221714" d="M269.2,409.5c-0.4,0-0.8-0.1-1.2-0.2c-0.4-0.1-44.8-15.1-93.1-34.4
			c-65.1-26.1-106-47.2-121.4-62.8c-13.1-13.2-17.6-29.6-12.4-44.7c4.8-14.2,17.3-24.5,31.6-26.5c15.2-2,30.2,5.9,40.9,21.8
			c45.6,67.3,168,129.9,169.2,130.5c1.8,0.9,2.6,3.2,1.6,5c-0.9,1.8-3.2,2.6-5,1.6c-5.1-2.6-125.3-64.1-172-133
			c-9.2-13.6-21.2-20.2-33.7-18.5c-11.6,1.5-21.6,10-25.5,21.5c-4.2,12.4-0.4,25.9,10.6,37.1c35.3,35.8,209.8,94.9,211.5,95.4
			c2,0.7,3,2.8,2.4,4.7C272.2,408.5,270.8,409.5,269.2,409.5z"/>
	</g>
	<g id="XMLID_118_">
		<path id="XMLID_27_" fill="#FFFFCE" d="M93,278.3c-1.1,10.6-10.6,18.3-21.2,17.1c-10.6-1.1-18.3-10.6-17.1-21.2
			c1.1-10.6,10.6-18.3,21.2-17.1C86.5,258.2,94.1,267.7,93,278.3z"/>
	</g>
	<g id="XMLID_117_">
		<path id="XMLID_26_" fill="#FFE600" d="M393,405.8c0,0,176.7-59.5,213-96.4c40.4-40.9-20.1-95.3-54.4-44.7
			C504.9,333.6,381,396.5,381,396.5"/>
		<path id="XMLID_56_" fill="#221714" d="M393,409.5c-1.6,0-3-1-3.5-2.5c-0.7-2,0.4-4.1,2.4-4.7c1.8-0.6,176.2-59.7,211.5-95.4
			c11-11.2,14.9-24.7,10.6-37.1c-3.9-11.5-14-19.9-25.5-21.5c-12.5-1.7-24.5,4.9-33.7,18.5c-46.7,68.9-166.9,130.4-172,133
			c-1.8,0.9-4.1,0.2-5-1.6s-0.2-4.1,1.6-5c1.2-0.6,123.6-63.2,169.2-130.5c10.7-15.9,25.7-23.8,40.9-21.8
			c14.4,1.9,26.8,12.3,31.6,26.5c5.2,15.2,0.7,31.5-12.4,44.7c-15.4,15.6-56.3,36.8-121.4,62.8c-48.2,19.3-92.6,34.3-93.1,34.4
			C393.8,409.5,393.4,409.5,393,409.5z"/>
	</g>
	<g id="XMLID_94_">
		<path id="XMLID_57_" fill="#FFFFCE" d="M568,278.3c1.1,10.6,10.6,18.3,21.2,17.1c10.6-1.1,18.3-10.6,17.1-21.2
			c-1.1-10.6-10.6-18.3-21.2-17.1C574.7,258.2,567,267.7,568,278.3z"/>
	</g>
</g>
</svg>
