<?xml version="1.0" encoding="utf-8"?>
<!-- Generator: Adobe Illustrator 19.0.0, SVG Export Plug-In . SVG Version: 6.00 Build 0)  -->
<svg version="1.1" id="圖層_1" xmlns="http://www.w3.org/2000/svg" xmlns:xlink="http://www.w3.org/1999/xlink" x="0px" y="0px"
	 viewBox="94.6 6.7 581.2 406" enable-background="new 94.6 6.7 581.2 406" xml:space="preserve">
<g>
	<path id="XMLID_129_" fill="#898989" d="M440.1,302.3c-2.2-1.8-4.6-4.6-6.8-7.8H336c-2.2,3.1-4.5,6-6.8,7.8c-5,4-5.6,7.1-4.7,8.2
		c0.9,1,3.7,2.2,9.5,2.2c4,0,29.5,0,44.8,0c6.8,0,11.7,0,11.7,0c15.3,0,40.8,0,44.8,0c5.8,0,8.6-1.2,9.5-2.2
		C445.6,309.5,445.1,306.3,440.1,302.3z"/>
	<g id="XMLID_70_">
		<g id="XMLID_71_">
			<path id="XMLID_74_" fill="#FFFFFF" d="M191.1,407.5c-3.8,0-6-2.2-6-6v-74.7h0.9v74.7c0,2.3,0.9,5.1,5.1,5.1c1.2,0,2.1-0.3,2.7-1
				c0.9-1,0.7-2.4,0.7-2.4l0-26c0-1.8,0.5-3.2,1.5-4c1.5-1.3,3.5-1,3.5-1l4.2,0v-38.8c0-1.4,0.4-2.4,1.2-3.1c1.3-1.1,3-0.8,3.1-0.8
				l16,0c4.9,0,4.9,4.3,4.9,4.3v8.6H228v-8.6c0-0.1-0.1-3.4-4-3.4H208c-0.1,0-1.5-0.2-2.4,0.6c-0.6,0.5-0.9,1.3-0.9,2.4v38.8l11.3,0
				c1.3,0,2.4,0.4,3.2,1.2c1.2,1.3,1.2,3.1,1.2,3.2v22.9c0,1.6-0.4,2.8-1.2,3.5c-0.9,0.8-1.9,0.6-1.9,0.6l-10,0
				c-2.8,0-3.5-3-3.5-4.5v-25.9h-4.3c-0.1,0-1.7-0.2-2.9,0.7c-0.8,0.7-1.2,1.8-1.2,3.3v26c0,0,0.2,1.8-1,3.1
				C193.7,407,192.6,407.5,191.1,407.5z M204.7,373.1V399c0,0.1,0,3.6,2.5,3.6h10c0.1,0,0.7,0.1,1.2-0.4c0.6-0.5,0.9-1.5,0.9-2.8
				v-23c0,0,0-1.5-0.9-2.5c-0.6-0.6-1.4-0.9-2.5-0.9H204.7z"/>
		</g>
		<g id="XMLID_72_">
			<path id="XMLID_73_" fill="#FFFFFF" d="M185.5,400.1H175c-1,0-1.9-0.3-2.4-1c-1.1-1.4-0.7-3.6-0.7-3.7l0-47.7h0.9v47.8
				c0,0.1-0.4,2,0.5,3c0.4,0.5,0.9,0.7,1.7,0.7h10.6V400.1z"/>
		</g>
		<path id="XMLID_67_" fill="#FFFFFF" d="M174.2,348.8h-3.7c-1.6,0-2.9-1.3-2.9-2.9v-4.3c0-1.6,1.3-2.9,2.9-2.9h3.7
			c1.6,0,2.9,1.3,2.9,2.9v4.3C177.1,347.5,175.8,348.8,174.2,348.8z"/>
		<path id="XMLID_68_" fill="#FFFFFF" d="M187.3,328h-3.7c-1.6,0-2.8-1.3-2.8-2.8v-3.7c0-1.6,1.3-2.8,2.8-2.8h3.7
			c1.6,0,2.8,1.3,2.8,2.8v3.7C190.2,326.7,188.9,328,187.3,328z"/>
		<path id="XMLID_69_" fill="#DCDCDC" d="M228.8,339.9h-0.6c-1,0-1.8,0.8-1.8,1.8v4.1c0,1,0.8,1.8,1.8,1.8h0.6c1,0,1.8-0.8,1.8-1.8
			v-4.1C230.6,340.7,229.8,339.9,228.8,339.9z"/>
	</g>
	<g id="XMLID_39_">
		<rect id="XMLID_38_" x="608.4" y="369.8" fill="#C3D609" width="10.1" height="24.3"/>
		<polygon id="XMLID_49_" fill="#898989" points="616.7,354.6 613.4,348.7 610.1,354.6 610.1,396.7 616.7,396.7 		"/>
		<rect id="XMLID_50_" x="610.1" y="396.7" fill="#535353" width="6.6" height="11.3"/>
		<path id="XMLID_40_" fill="#C3D609" d="M613.8,412.7h-0.7c-1.2,0-2.1-1-2.1-2.1v-3.4c0-1.2,1-2.1,2.1-2.1h0.7c1.2,0,2.1,1,2.1,2.1
			v3.4C615.9,411.8,615,412.7,613.8,412.7z"/>
	</g>
	<g id="XMLID_37_">
		<path id="XMLID_36_" fill="#FFFFFF" d="M605.5,411.7h-96c-1.6,0-2.8-1.3-2.8-2.8v-55.5c0-1.6,1.3-2.8,2.8-2.8h96
			c1.6,0,2.8,1.3,2.8,2.8v55.5C608.4,410.4,607.1,411.7,605.5,411.7z"/>
		<path id="XMLID_42_" fill="#EDEDED" d="M602,354.6h-71.6V408H602c1.5,0,2.7-1.2,2.7-2.7v-48.1C604.6,355.8,603.4,354.6,602,354.6z
			"/>
		<path id="XMLID_41_" fill="#C8C8C8" d="M530.4,354.6h-8.5c-1.5,0-2.7,1.2-2.7,2.7V372h11.1V354.6z"/>
		<rect id="XMLID_43_" x="519.3" y="372" fill="#DCDCDC" width="11.1" height="19.5"/>
		<path id="XMLID_45_" fill="#C8C8C8" d="M519.3,391.5v13.8c0,1.5,1.2,2.7,2.7,2.7h8.5v-16.5H519.3z"/>
	</g>
	<path id="XMLID_44_" fill="#EDEDED" d="M673.5,411.7h-49.2c-1.6,0-2.8-1.3-2.8-2.8v-49.6c0-1.6,1.3-2.8,2.8-2.8h49.2
		c1.6,0,2.8,1.3,2.8,2.8v49.6C676.3,410.4,675.1,411.7,673.5,411.7z"/>
	<g id="XMLID_66_">
		<path id="XMLID_48_" fill="#535353" d="M257.5,412.7h-31.8c-1.6,0-2.8-1.3-2.8-2.8v-61.4c0-1.6,1.3-2.8,2.8-2.8h31.8
			c1.6,0,2.8,1.3,2.8,2.8v61.4C260.3,411.4,259,412.7,257.5,412.7z"/>
		<rect id="XMLID_51_" x="224.7" y="354" fill="#323232" width="33.7" height="49.1"/>
		<g id="XMLID_55_">
			<circle id="XMLID_62_" fill="#323232" cx="241.6" cy="407.8" r="3"/>
		</g>
		<path id="XMLID_59_" fill="#323232" d="M245.8,352.2h-8.4c-0.5,0-0.9-0.4-0.9-0.9v-0.3c0-0.5,0.4-0.9,0.9-0.9h8.4
			c0.5,0,0.9,0.4,0.9,0.9v0.3C246.6,351.8,246.2,352.2,245.8,352.2z"/>
		<path id="XMLID_60_" fill="#323232" d="M234.2,352.2h-0.3c-0.5,0-0.9-0.4-0.9-0.9v-0.3c0-0.5,0.4-0.9,0.9-0.9h0.3
			c0.5,0,0.9,0.4,0.9,0.9v0.3C235,351.8,234.6,352.2,234.2,352.2z"/>
		<g id="XMLID_61_">
			<path id="XMLID_63_" fill="#FFFFFF" d="M243.1,409.3H240v-3.1h3.1V409.3z M240.5,408.9h2.2v-2.2h-2.2V408.9z"/>
		</g>
	</g>
	<g id="XMLID_87_">
		<path id="XMLID_83_" fill="#898989" d="M163.8,321.3c0-1.5-1.2-2.7-2.7-2.7H97.2c-1.5,0-2.7,1.2-2.7,2.7v32.3h69.2V321.3z"/>
		<path id="XMLID_84_" fill="#C8C8C8" d="M94.6,353.6v56.5c0,1.5,1.2,2.7,2.7,2.7h63.9c1.5,0,2.7-1.2,2.7-2.7v-56.5H94.6z"/>
		<path id="XMLID_78_" fill="#F6F6F6" d="M157.2,351.2h-56.5c-1.6,0-2.8-1.3-2.8-2.8v-16.2c0-1.6,1.3-2.8,2.8-2.8h56.5
			c1.6,0,2.8,1.3,2.8,2.8v16.2C160,349.9,158.7,351.2,157.2,351.2z"/>
		<path id="XMLID_79_" fill="#535353" d="M157.7,326.8h-26.2c-1.3,0-2.3-1-2.3-2.3v-0.8c0-1.3,1-2.3,2.3-2.3h26.2
			c1.3,0,2.3,1,2.3,2.3v0.8C160,325.8,159,326.8,157.7,326.8z"/>
		<path id="XMLID_80_" fill="#525CC9" d="M158.8,358.3h-8.2c-0.7,0-1.3-0.6-1.3-1.3v-0.4c0-0.7,0.6-1.3,1.3-1.3h8.2
			c0.7,0,1.3,0.6,1.3,1.3v0.4C160,357.7,159.4,358.3,158.8,358.3z"/>
		<path id="XMLID_82_" fill="#525CC9" d="M145.7,358.3h-8.2c-0.7,0-1.3-0.6-1.3-1.3v-0.4c0-0.7,0.6-1.3,1.3-1.3h8.2
			c0.7,0,1.3,0.6,1.3,1.3v0.4C147,357.7,146.4,358.3,145.7,358.3z"/>
		<path id="XMLID_85_" fill="#525CC9" d="M132.7,358.3h-8.2c-0.7,0-1.3-0.6-1.3-1.3v-0.4c0-0.7,0.6-1.3,1.3-1.3h8.2
			c0.7,0,1.3,0.6,1.3,1.3v0.4C134,357.7,133.4,358.3,132.7,358.3z"/>
		<path id="XMLID_86_" fill="#525CC9" d="M119.7,358.3h-8.2c-0.7,0-1.3-0.6-1.3-1.3v-0.4c0-0.7,0.6-1.3,1.3-1.3h8.2
			c0.7,0,1.3,0.6,1.3,1.3v0.4C121,357.7,120.4,358.3,119.7,358.3z"/>
		<path id="XMLID_81_" fill="#EDEDED" d="M158.6,370.9h-7.8c-0.8,0-1.4-0.6-1.4-1.4v-8.3c0-0.8,0.6-1.4,1.4-1.4h7.8
			c0.8,0,1.4,0.6,1.4,1.4v8.3C160,370.3,159.4,370.9,158.6,370.9z"/>
		<path id="XMLID_88_" fill="#EDEDED" d="M158.6,384.1h-7.8c-0.8,0-1.4-0.6-1.4-1.4v-8.3c0-0.8,0.6-1.4,1.4-1.4h7.8
			c0.8,0,1.4,0.6,1.4,1.4v8.3C160,383.5,159.4,384.1,158.6,384.1z"/>
		<path id="XMLID_89_" fill="#EDEDED" d="M158.6,397.3h-7.8c-0.8,0-1.4-0.6-1.4-1.4v-8.3c0-0.8,0.6-1.4,1.4-1.4h7.8
			c0.8,0,1.4,0.6,1.4,1.4v8.3C160,396.7,159.4,397.3,158.6,397.3z"/>
		<path id="XMLID_90_" fill="#EDEDED" d="M158.6,410.5h-7.8c-0.8,0-1.4-0.6-1.4-1.4v-8.3c0-0.8,0.6-1.4,1.4-1.4h7.8
			c0.8,0,1.4,0.6,1.4,1.4v8.3C160,409.8,159.4,410.5,158.6,410.5z"/>
		<path id="XMLID_94_" fill="#EDEDED" d="M145.6,370.9h-7.8c-0.8,0-1.4-0.6-1.4-1.4v-8.3c0-0.8,0.6-1.4,1.4-1.4h7.8
			c0.8,0,1.4,0.6,1.4,1.4v8.3C147,370.3,146.4,370.9,145.6,370.9z"/>
		<path id="XMLID_93_" fill="#EDEDED" d="M145.6,384.1h-7.8c-0.8,0-1.4-0.6-1.4-1.4v-8.3c0-0.8,0.6-1.4,1.4-1.4h7.8
			c0.8,0,1.4,0.6,1.4,1.4v8.3C147,383.5,146.4,384.1,145.6,384.1z"/>
		<path id="XMLID_92_" fill="#EDEDED" d="M145.6,397.3h-7.8c-0.8,0-1.4-0.6-1.4-1.4v-8.3c0-0.8,0.6-1.4,1.4-1.4h7.8
			c0.8,0,1.4,0.6,1.4,1.4v8.3C147,396.7,146.4,397.3,145.6,397.3z"/>
		<path id="XMLID_91_" fill="#EDEDED" d="M145.6,410.5h-7.8c-0.8,0-1.4-0.6-1.4-1.4v-8.3c0-0.8,0.6-1.4,1.4-1.4h7.8
			c0.8,0,1.4,0.6,1.4,1.4v8.3C147,409.8,146.4,410.5,145.6,410.5z"/>
		<path id="XMLID_98_" fill="#EDEDED" d="M132.6,370.9h-7.8c-0.8,0-1.4-0.6-1.4-1.4v-8.3c0-0.8,0.6-1.4,1.4-1.4h7.8
			c0.8,0,1.4,0.6,1.4,1.4v8.3C134,370.3,133.3,370.9,132.6,370.9z"/>
		<path id="XMLID_97_" fill="#323232" d="M132.6,384.1h-7.8c-0.8,0-1.4-0.6-1.4-1.4v-8.3c0-0.8,0.6-1.4,1.4-1.4h7.8
			c0.8,0,1.4,0.6,1.4,1.4v8.3C134,383.5,133.3,384.1,132.6,384.1z"/>
		<path id="XMLID_96_" fill="#323232" d="M132.6,397.3h-7.8c-0.8,0-1.4-0.6-1.4-1.4v-8.3c0-0.8,0.6-1.4,1.4-1.4h7.8
			c0.8,0,1.4,0.6,1.4,1.4v8.3C134,396.7,133.3,397.3,132.6,397.3z"/>
		<path id="XMLID_95_" fill="#323232" d="M132.6,410.5h-7.8c-0.8,0-1.4-0.6-1.4-1.4v-8.3c0-0.8,0.6-1.4,1.4-1.4h7.8
			c0.8,0,1.4,0.6,1.4,1.4v8.3C134,409.8,133.3,410.5,132.6,410.5z"/>
		<path id="XMLID_102_" fill="#F7B52B" d="M119.5,370.9h-7.8c-0.8,0-1.4-0.6-1.4-1.4v-8.3c0-0.8,0.6-1.4,1.4-1.4h7.8
			c0.8,0,1.4,0.6,1.4,1.4v8.3C121,370.3,120.3,370.9,119.5,370.9z"/>
		<path id="XMLID_101_" fill="#323232" d="M119.5,384.1h-7.8c-0.8,0-1.4-0.6-1.4-1.4v-8.3c0-0.8,0.6-1.4,1.4-1.4h7.8
			c0.8,0,1.4,0.6,1.4,1.4v8.3C121,383.5,120.3,384.1,119.5,384.1z"/>
		<path id="XMLID_100_" fill="#323232" d="M119.5,397.3h-7.8c-0.8,0-1.4-0.6-1.4-1.4v-8.3c0-0.8,0.6-1.4,1.4-1.4h7.8
			c0.8,0,1.4,0.6,1.4,1.4v8.3C121,396.7,120.3,397.3,119.5,397.3z"/>
		<path id="XMLID_99_" fill="#323232" d="M119.5,410.5h-7.8c-0.8,0-1.4-0.6-1.4-1.4v-8.3c0-0.8,0.6-1.4,1.4-1.4h7.8
			c0.8,0,1.4,0.6,1.4,1.4v8.3C121,409.8,120.3,410.5,119.5,410.5z"/>
		<path id="XMLID_106_" fill="#F7B52B" d="M106.5,370.9h-7.8c-0.8,0-1.4-0.6-1.4-1.4v-8.3c0-0.8,0.6-1.4,1.4-1.4h7.8
			c0.8,0,1.4,0.6,1.4,1.4v8.3C108,370.3,107.3,370.9,106.5,370.9z"/>
		<path id="XMLID_105_" fill="#323232" d="M106.5,384.1h-7.8c-0.8,0-1.4-0.6-1.4-1.4v-8.3c0-0.8,0.6-1.4,1.4-1.4h7.8
			c0.8,0,1.4,0.6,1.4,1.4v8.3C108,383.5,107.3,384.1,106.5,384.1z"/>
		<path id="XMLID_104_" fill="#323232" d="M106.5,397.3h-7.8c-0.8,0-1.4-0.6-1.4-1.4v-8.3c0-0.8,0.6-1.4,1.4-1.4h7.8
			c0.8,0,1.4,0.6,1.4,1.4v8.3C108,396.7,107.3,397.3,106.5,397.3z"/>
		<path id="XMLID_103_" fill="#323232" d="M106.5,410.5h-7.8c-0.8,0-1.4-0.6-1.4-1.4v-8.3c0-0.8,0.6-1.4,1.4-1.4h7.8
			c0.8,0,1.4,0.6,1.4,1.4v8.3C108,409.8,107.3,410.5,106.5,410.5z"/>
	</g>
	<g id="XMLID_108_">
		<g id="XMLID_109_">
			<path id="XMLID_110_" fill="#FFFFFF" d="M653.4,369.8l-1.9,0c0,0,0-13.3,0-17.6c0-3.2,2.6-4.4,4.4-4.4h14.4
				c3.5,0,3.5-1.5,3.5-2.1v-6.2c0-0.7-0.2-1.2-0.6-1.5c-1.1-1-3.3-1-4-0.9l-0.1,0H501.5v-1.9h167.6c0.6-0.1,3.6-0.3,5.4,1.4
				c0.8,0.7,1.2,1.7,1.2,2.9v6.2c0,1.8-0.9,3.9-5.4,3.9H656c-0.4,0-2.5,0.2-2.5,2.5C653.4,356.4,653.4,369.8,653.4,369.8z"/>
		</g>
		<g id="XMLID_47_">
			<path id="XMLID_54_" fill="#C8C8C8" d="M664.3,378.6c0-6.4-5.3-11.7-11.7-11.7c-4.1,0-7.7,2.1-9.8,5.3v11h21.5V378.6z"/>
			<path id="XMLID_56_" fill="#A0A0A0" d="M640.9,378.6v4.6h1.9v-11C641.6,374.1,640.9,376.3,640.9,378.6z"/>
			<rect id="XMLID_53_" x="642.8" y="383.2" fill="#F8F8F8" width="21.5" height="1.1"/>
			<rect id="XMLID_57_" x="640.9" y="383.2" fill="#F8F8F8" width="1.9" height="1.1"/>
			<path id="XMLID_52_" fill="#A0A0A0" d="M640.9,384.4v9.6c0,2.4,0.7,4.6,1.9,6.4v-16H640.9z"/>
			<path id="XMLID_58_" fill="#C8C8C8" d="M642.8,384.4v16c2.1,3.2,5.7,5.3,9.8,5.3c6.4,0,11.7-5.3,11.7-11.7v-9.6H642.8z"/>
			<circle id="XMLID_46_" fill="#F8F8F8" cx="652.4" cy="376.2" r="3.5"/>
		</g>
		<ellipse id="XMLID_107_" fill="#C8C8C8" cx="501.5" cy="336.1" rx="2.8" ry="3.3"/>
		<g id="XMLID_77_">
			<path id="XMLID_1_" fill="#FFFFFF" d="M496.3,412.7H270.4c-3.1,0-5.7-2.6-5.7-5.7v-74.6c0-3.1,2.6-5.7,5.7-5.7h225.9
				c3.1,0,5.7,2.6,5.7,5.7V407C502,410.2,499.4,412.7,496.3,412.7z"/>
			<g id="XMLID_6_">
				<path id="XMLID_5_" fill="#C8C8C8" d="M291.3,355.4h-20.5c-1.6,0-2.8-1.3-2.8-2.8v-7.4c0-1.6,1.3-2.8,2.8-2.8h20.5
					c1.6,0,2.8,1.3,2.8,2.8v7.4C294.1,354.1,292.8,355.4,291.3,355.4z"/>
				<path id="XMLID_7_" fill="#C8C8C8" d="M320.5,355.4h-20.5c-1.6,0-2.8-1.3-2.8-2.8v-7.4c0-1.6,1.3-2.8,2.8-2.8h20.5
					c1.6,0,2.8,1.3,2.8,2.8v7.4C323.3,354.1,322.1,355.4,320.5,355.4z"/>
				<path id="XMLID_8_" fill="#C8C8C8" d="M349.7,355.4h-20.5c-1.6,0-2.8-1.3-2.8-2.8v-7.4c0-1.6,1.3-2.8,2.8-2.8h20.5
					c1.6,0,2.8,1.3,2.8,2.8v7.4C352.6,354.1,351.3,355.4,349.7,355.4z"/>
				<path id="XMLID_9_" fill="#C8C8C8" d="M379,355.4h-20.5c-1.6,0-2.8-1.3-2.8-2.8v-7.4c0-1.6,1.3-2.8,2.8-2.8H379
					c1.6,0,2.8,1.3,2.8,2.8v7.4C381.8,354.1,380.5,355.4,379,355.4z"/>
				<path id="XMLID_10_" fill="#C8C8C8" d="M408.2,355.4h-20.5c-1.6,0-2.8-1.3-2.8-2.8v-7.4c0-1.6,1.3-2.8,2.8-2.8h20.5
					c1.6,0,2.8,1.3,2.8,2.8v7.4C411,354.1,409.8,355.4,408.2,355.4z"/>
				<path id="XMLID_11_" fill="#C8C8C8" d="M437.4,355.4H417c-1.6,0-2.8-1.3-2.8-2.8v-7.4c0-1.6,1.3-2.8,2.8-2.8h20.5
					c1.6,0,2.8,1.3,2.8,2.8v7.4C440.3,354.1,439,355.4,437.4,355.4z"/>
				<path id="XMLID_19_" fill="#F23373" d="M291.3,372.9h-20.5c-1.6,0-2.8-1.3-2.8-2.8v-7.4c0-1.6,1.3-2.8,2.8-2.8h20.5
					c1.6,0,2.8,1.3,2.8,2.8v7.4C294.1,371.6,292.8,372.9,291.3,372.9z"/>
				<path id="XMLID_18_" fill="#F23373" d="M320.5,372.9h-20.5c-1.6,0-2.8-1.3-2.8-2.8v-7.4c0-1.6,1.3-2.8,2.8-2.8h20.5
					c1.6,0,2.8,1.3,2.8,2.8v7.4C323.3,371.6,322.1,372.9,320.5,372.9z"/>
				<path id="XMLID_17_" fill="#F23373" d="M349.7,372.9h-20.5c-1.6,0-2.8-1.3-2.8-2.8v-7.4c0-1.6,1.3-2.8,2.8-2.8h20.5
					c1.6,0,2.8,1.3,2.8,2.8v7.4C352.6,371.6,351.3,372.9,349.7,372.9z"/>
				<path id="XMLID_16_" fill="#F23373" d="M379,372.9h-20.5c-1.6,0-2.8-1.3-2.8-2.8v-7.4c0-1.6,1.3-2.8,2.8-2.8H379
					c1.6,0,2.8,1.3,2.8,2.8v7.4C381.8,371.6,380.5,372.9,379,372.9z"/>
				<path id="XMLID_15_" fill="#F23373" d="M408.2,372.9h-20.5c-1.6,0-2.8-1.3-2.8-2.8v-7.4c0-1.6,1.3-2.8,2.8-2.8h20.5
					c1.6,0,2.8,1.3,2.8,2.8v7.4C411,371.6,409.8,372.9,408.2,372.9z"/>
				<path id="XMLID_14_" fill="#F23373" d="M437.4,372.9H417c-1.6,0-2.8-1.3-2.8-2.8v-7.4c0-1.6,1.3-2.8,2.8-2.8h20.5
					c1.6,0,2.8,1.3,2.8,2.8v7.4C440.3,371.6,439,372.9,437.4,372.9z"/>
				<path id="XMLID_27_" fill="#F23373" d="M495.9,372.9h-49.7c-1.6,0-2.8-1.3-2.8-2.8v-7.4c0-1.6,1.3-2.8,2.8-2.8h49.7
					c1.6,0,2.8,1.3,2.8,2.8v7.4C498.7,371.6,497.4,372.9,495.9,372.9z"/>
				<path id="XMLID_25_" fill="#F23373" d="M291.3,390.4h-20.5c-1.6,0-2.8-1.3-2.8-2.8v-7.4c0-1.6,1.3-2.8,2.8-2.8h20.5
					c1.6,0,2.8,1.3,2.8,2.8v7.4C294.1,389.1,292.8,390.4,291.3,390.4z"/>
				<path id="XMLID_24_" fill="#F23373" d="M320.5,390.4h-20.5c-1.6,0-2.8-1.3-2.8-2.8v-7.4c0-1.6,1.3-2.8,2.8-2.8h20.5
					c1.6,0,2.8,1.3,2.8,2.8v7.4C323.3,389.1,322.1,390.4,320.5,390.4z"/>
				<path id="XMLID_23_" fill="#F23373" d="M349.7,390.4h-20.5c-1.6,0-2.8-1.3-2.8-2.8v-7.4c0-1.6,1.3-2.8,2.8-2.8h20.5
					c1.6,0,2.8,1.3,2.8,2.8v7.4C352.6,389.1,351.3,390.4,349.7,390.4z"/>
				<path id="XMLID_22_" fill="#F23373" d="M379,390.4h-20.5c-1.6,0-2.8-1.3-2.8-2.8v-7.4c0-1.6,1.3-2.8,2.8-2.8H379
					c1.6,0,2.8,1.3,2.8,2.8v7.4C381.8,389.1,380.5,390.4,379,390.4z"/>
				<path id="XMLID_21_" fill="#F23373" d="M408.2,390.4h-20.5c-1.6,0-2.8-1.3-2.8-2.8v-7.4c0-1.6,1.3-2.8,2.8-2.8h20.5
					c1.6,0,2.8,1.3,2.8,2.8v7.4C411,389.1,409.8,390.4,408.2,390.4z"/>
				<path id="XMLID_20_" fill="#F23373" d="M437.4,390.4H417c-1.6,0-2.8-1.3-2.8-2.8v-7.4c0-1.6,1.3-2.8,2.8-2.8h20.5
					c1.6,0,2.8,1.3,2.8,2.8v7.4C440.3,389.1,439,390.4,437.4,390.4z"/>
				<path id="XMLID_28_" fill="#F23373" d="M452.2,390.4h-6c-1.6,0-2.8-1.3-2.8-2.8v-7.4c0-1.6,1.3-2.8,2.8-2.8h6
					c1.6,0,2.8,1.3,2.8,2.8v7.4C455,389.1,453.7,390.4,452.2,390.4z"/>
				<path id="XMLID_29_" fill="#F23373" d="M466.7,390.4h-6c-1.6,0-2.8-1.3-2.8-2.8v-7.4c0-1.6,1.3-2.8,2.8-2.8h6
					c1.6,0,2.8,1.3,2.8,2.8v7.4C469.6,389.1,468.3,390.4,466.7,390.4z"/>
				<path id="XMLID_35_" fill="#C8C8C8" d="M495.9,390.4h-20.5c-1.6,0-2.8-1.3-2.8-2.8v-7.4c0-1.6,1.3-2.8,2.8-2.8h20.5
					c1.6,0,2.8,1.3,2.8,2.8v7.4C498.7,389.1,497.4,390.4,495.9,390.4z"/>
				<path id="XMLID_32_" fill="#F23373" d="M452.2,408h-6c-1.6,0-2.8-1.3-2.8-2.8v-7.4c0-1.6,1.3-2.8,2.8-2.8h6
					c1.6,0,2.8,1.3,2.8,2.8v7.4C455,406.7,453.7,408,452.2,408z"/>
				<path id="XMLID_30_" fill="#F23373" d="M466.7,408h-6c-1.6,0-2.8-1.3-2.8-2.8v-7.4c0-1.6,1.3-2.8,2.8-2.8h6
					c1.6,0,2.8,1.3,2.8,2.8v7.4C469.6,406.7,468.3,408,466.7,408z"/>
				<path id="XMLID_33_" fill="#F23373" d="M481.3,408h-6c-1.6,0-2.8-1.3-2.8-2.8v-7.4c0-1.6,1.3-2.8,2.8-2.8h6
					c1.6,0,2.8,1.3,2.8,2.8v7.4C484.1,406.7,482.9,408,481.3,408z"/>
				<path id="XMLID_34_" fill="#F23373" d="M495.9,408h-6c-1.6,0-2.8-1.3-2.8-2.8v-7.4c0-1.6,1.3-2.8,2.8-2.8h6
					c1.6,0,2.8,1.3,2.8,2.8v7.4C498.7,406.7,497.4,408,495.9,408z"/>
				<path id="XMLID_31_" fill="#C8C8C8" d="M320.5,408h-49.7c-1.6,0-2.8-1.3-2.8-2.8v-7.4c0-1.6,1.3-2.8,2.8-2.8h49.7
					c1.6,0,2.8,1.3,2.8,2.8v7.4C323.3,406.7,322.1,408,320.5,408z"/>
				<path id="XMLID_26_" fill="#C8C8C8" d="M437.4,408H329.3c-1.6,0-2.8-1.3-2.8-2.8v-7.4c0-1.6,1.3-2.8,2.8-2.8h108.1
					c1.6,0,2.8,1.3,2.8,2.8v7.4C440.3,406.7,439,408,437.4,408z"/>
				<path id="XMLID_12_" fill="#C8C8C8" d="M466.6,355.4h-20.5c-1.6,0-2.8-1.3-2.8-2.8v-7.4c0-1.6,1.3-2.8,2.8-2.8h20.5
					c1.6,0,2.8,1.3,2.8,2.8v7.4C469.5,354.1,468.2,355.4,466.6,355.4z"/>
				<path id="XMLID_13_" fill="#C8C8C8" d="M495.9,355.4h-20.5c-1.6,0-2.8-1.3-2.8-2.8v-7.4c0-1.6,1.3-2.8,2.8-2.8h20.5
					c1.6,0,2.8,1.3,2.8,2.8v7.4C498.7,354.1,497.4,355.4,495.9,355.4z"/>
			</g>
		</g>
	</g>
	<g id="XMLID_117_">
		<path id="XMLID_122_" fill="#DCDCDC" d="M210.1,309.9c0-19.3-15.6-34.9-34.9-34.9c-19.3,0-34.9,15.6-34.9,34.9c0,0.1,0,0.1,0,0.2
			h69.9C210.1,310.1,210.1,310,210.1,309.9z"/>
		<path id="XMLID_111_" fill="#FFFFFF" d="M178.8,305.5h-7.2c-11.2,0-20.4-9.2-20.4-20.4V136.5c0-11.2,9.2-20.4,20.4-20.4h7.2
			c11.2,0,20.4,9.2,20.4,20.4v148.6C199.1,296.3,190,305.5,178.8,305.5z"/>
		<g id="XMLID_115_">
			<path id="XMLID_112_" fill="#898989" d="M177.7,159.6h-5.1c-7.9,0-14.4-6.5-14.4-14.4v-5.1c0-7.9,6.5-14.4,14.4-14.4h5.1
				c7.9,0,14.4,6.5,14.4,14.4v5.1C192.1,153.1,185.6,159.6,177.7,159.6z"/>
			<circle id="XMLID_113_" fill="#DCDCDC" cx="175.2" cy="142.6" r="8.9"/>
			<rect id="XMLID_114_" x="154.5" y="141.5" fill="#FFFFFF" width="41.4" height="2.2"/>
			<rect id="XMLID_116_" x="174.1" y="121.9" fill="#FFFFFF" width="2.2" height="41.4"/>
		</g>
	</g>
	<g id="XMLID_119_">
		<path id="XMLID_127_" fill="#DCDCDC" d="M630.8,309.9c0-19.3-15.6-34.9-34.9-34.9c-19.3,0-34.9,15.6-34.9,34.9c0,0.1,0,0.1,0,0.2
			h69.9C630.8,310.1,630.8,310,630.8,309.9z"/>
		<path id="XMLID_126_" fill="#FFFFFF" d="M599.4,305.5h-7.2c-11.2,0-20.4-9.2-20.4-20.4V136.5c0-11.2,9.2-20.4,20.4-20.4h7.2
			c11.2,0,20.4,9.2,20.4,20.4v148.6C619.8,296.3,610.6,305.5,599.4,305.5z"/>
		<g id="XMLID_120_">
			<path id="XMLID_125_" fill="#898989" d="M598.4,159.6h-5.1c-7.9,0-14.4-6.5-14.4-14.4v-5.1c0-7.9,6.5-14.4,14.4-14.4h5.1
				c7.9,0,14.4,6.5,14.4,14.4v5.1C612.8,153.1,606.3,159.6,598.4,159.6z"/>
			<circle id="XMLID_124_" fill="#DCDCDC" cx="595.8" cy="142.6" r="8.9"/>
			<rect id="XMLID_123_" x="575.1" y="141.5" fill="#FFFFFF" width="41.4" height="2.2"/>
			<rect id="XMLID_121_" x="594.7" y="121.9" fill="#FFFFFF" width="2.2" height="41.4"/>
		</g>
	</g>
	<path id="XMLID_132_" fill="#FFFFFF" d="M210,219.5v34.1c0,2.9,2.4,5.3,5.3,5.3h340.2c2.9,0,5.3-2.4,5.3-5.3v-34.1H210z"/>
	<path id="XMLID_133_" fill="#B5B5B5" d="M560.8,12c0-2.9-2.4-5.3-5.3-5.3H215.3c-2.9,0-5.3,2.4-5.3,5.3v207.5h350.8V12z"/>
	<path id="XMLID_135_" fill="#898989" d="M425.7,258.9h-35.2h-11.7h-35.2c0,0,1.1,20.8-1.3,25.8h84.6
		C424.6,279.7,425.7,258.9,425.7,258.9z"/>
	<path id="XMLID_134_" fill="#B5B5B5" d="M440.1,301.2c-2.2-1.5-4.6-4-6.8-6.6H336c-2.2,2.7-4.5,5.1-6.8,6.6c-5,3.4-5.6,6.1-4.7,7
		c0.9,0.9,3.7,1.9,9.5,1.9c4,0,29.5,0,44.8,0c6.8,0,11.7,0,11.7,0c15.3,0,40.8,0,44.8,0c5.8,0,8.6-1,9.5-1.9
		C445.6,307.3,445.1,304.6,440.1,301.2z"/>
	<path id="XMLID_137_" fill="#DCDCDC" d="M426.9,284.7h-84.6c-1.3,2.8-3.6,6.5-6.3,9.9h97.3C430.6,291.2,428.2,287.5,426.9,284.7z"
		/>
	<g>
		<defs>
			<path id="XMLID_118_" d="M547.3,209.7H223.5c-1.6,0-2.8-1.3-2.8-2.8V18.7c0-1.6,1.3-2.8,2.8-2.8h323.8c1.6,0,2.8,1.3,2.8,2.8
				v188.2C550.1,208.4,548.9,209.7,547.3,209.7z"/>
		</defs>
		<clipPath id="XMLID_3_">
			<use xlink:href="#XMLID_118_"  overflow="visible"/>
		</clipPath>
		<g clip-path="url(#XMLID_3_)">
			<g>
				<rect x="186.1" y="11.8" fill="#C0EAF8" width="383.3" height="215.6"/>
			</g>
			<g id="Ferris_Wheel">
				<polygon fill="none" stroke="#9C7DC9" stroke-width="11.247" stroke-miterlimit="10" points="292.4,190.7 319.3,91.8 
					346.2,190.7 				"/>
				<circle fill="none" stroke="#99A0B7" stroke-width="5.4147" stroke-miterlimit="10" cx="319.3" cy="96.4" r="53.7"/>
				<circle fill="none" stroke="#99A0B7" stroke-width="3.3471" stroke-miterlimit="10" cx="319.3" cy="96.4" r="33.2"/>
				<circle fill="none" stroke="#99A0B7" stroke-width="1.6735" stroke-miterlimit="10" cx="319.3" cy="96.4" r="30.2"/>
				<line fill="none" stroke="#D42728" stroke-width="3.0674" stroke-miterlimit="10" x1="319.3" y1="43.5" x2="319.3" y2="149.4"/>
				<line fill="none" stroke="#D42728" stroke-width="3.0674" stroke-miterlimit="10" x1="292.8" y1="50.6" x2="345.8" y2="142.3"/>
				<line fill="none" stroke="#D42728" stroke-width="3.0674" stroke-miterlimit="10" x1="273.4" y1="69.9" x2="365.1" y2="122.9"/>
				<line fill="none" stroke="#D42728" stroke-width="3.0674" stroke-miterlimit="10" x1="266.3" y1="96.4" x2="372.2" y2="96.4"/>
				<line fill="none" stroke="#D42728" stroke-width="3.0674" stroke-miterlimit="10" x1="273.4" y1="122.9" x2="365.1" y2="69.9"/>
				<line fill="none" stroke="#D42728" stroke-width="3.0674" stroke-miterlimit="10" x1="292.8" y1="142.3" x2="345.8" y2="50.6"/>
				<g>
					<circle fill="#F44242" cx="319.3" cy="42.5" r="1.3"/>
					<path fill="#F44242" d="M325.6,48.3c0,2.1-1.3,3.9-2.9,3.9h-6.7c-1.6,0-2.9-1.7-2.9-3.9v-1.2c0-2.1,1.3-3.9,2.9-3.9h6.7
						c1.6,0,2.9,1.7,2.9,3.9V48.3z"/>
					<path fill="#96DDFB" d="M324.8,47.2v0.6h-10.9v-0.6c0-1.9,1.1-3.4,2.5-3.4h5.9c0.1,0,0.2,0,0.3,0
						C323.8,44.1,324.8,45.5,324.8,47.2z"/>
					<polygon fill="#DFF3FC" points="321.2,43.9 317.9,47.8 316.8,47.8 320.2,43.9 					"/>
					<path fill="#DFF3FC" d="M319.2,47.8l3.4-3.9c-0.1,0,0.1,0,0,0h-0.6l-3.4,4H319.2z"/>
					<rect x="318.9" y="43.5" fill="#F44242" width="0.8" height="4.3"/>
				</g>
				<g>
					<circle fill="#5EBBFE" cx="319.3" cy="149.7" r="1.3"/>
					<path fill="#5EBBFE" d="M325.6,155.6c0,2.1-1.3,3.9-2.9,3.9h-6.7c-1.6,0-2.9-1.7-2.9-3.9v-1.2c0-2.1,1.3-3.9,2.9-3.9h6.7
						c1.6,0,2.9,1.7,2.9,3.9V155.6z"/>
					<path fill="#96DDFB" d="M324.8,154.5v0.6h-10.9v-0.6c0-1.9,1.1-3.4,2.5-3.4h5.9c0.1,0,0.2,0,0.3,0
						C323.8,151.3,324.8,152.7,324.8,154.5z"/>
					<polygon fill="#DFF3FC" points="321.2,151.1 317.9,155 316.8,155 320.2,151.1 					"/>
					<path fill="#DFF3FC" d="M319.2,155l3.4-3.9c-0.1,0,0.1,0,0,0h-0.6l-3.4,4H319.2z"/>
					<rect x="318.9" y="150.7" fill="#5EBBFE" width="0.8" height="4.3"/>
				</g>
				<g>
					<circle fill="#9C7DC9" cx="345.9" cy="142.6" r="1.3"/>
					<path fill="#9C7DC9" d="M352.4,148.2c0.1,2.1-1.2,3.9-2.8,4l-6.7,0.2c-1.6,0.1-3-1.6-3.1-3.8l0-1.2c-0.1-2.1,1.2-3.9,2.8-4
						l6.7-0.2c1.6-0.1,3,1.6,3.1,3.8L352.4,148.2z"/>
					<path fill="#96DDFB" d="M351.6,147.1l0,0.6l-10.9,0.4l0-0.6c-0.1-1.9,1-3.4,2.4-3.5l5.8-0.2c0.1,0,0.2,0,0.3,0
						C350.5,144,351.5,145.4,351.6,147.1z"/>
					<polygon fill="#DFF3FC" points="348,143.8 344.7,147.9 343.6,147.9 346.9,143.9 					"/>
					<path fill="#DFF3FC" d="M346,147.9l3.2-4c-0.1,0,0.1,0,0,0l-0.6,0l-3.2,4.1L346,147.9z"/>
					
						<rect x="345.7" y="143.5" transform="matrix(0.9994 -3.496223e-02 3.496223e-02 0.9994 -4.8818 12.1877)" fill="#9C7DC9" width="0.8" height="4.3"/>
				</g>
				<g>
					<circle fill="#FFA640" cx="365.7" cy="122.9" r="1.3"/>
					<path fill="#FFA640" d="M372,128.8c0,2.1-1.3,3.9-3,3.9l-6.7-0.1c-1.6,0-2.9-1.8-2.9-3.9l0-1.2c0-2.1,1.3-3.9,3-3.9l6.7,0.1
						c1.6,0,2.9,1.8,2.9,3.9L372,128.8z"/>
					<path fill="#96DDFB" d="M371.2,127.7l0,0.6l-10.9-0.1l0-0.6c0-1.9,1.2-3.4,2.6-3.4l5.9,0c0.1,0,0.2,0,0.3,0
						C370.2,124.5,371.2,126,371.2,127.7z"/>
					<polygon fill="#DFF3FC" points="367.7,124.3 364.3,128.2 363.2,128.2 366.6,124.3 					"/>
					<path fill="#DFF3FC" d="M365.6,128.2l3.4-3.9c-0.1,0,0.1,0,0,0l-0.6,0l-3.4,3.9L365.6,128.2z"/>
					
						<rect x="365.3" y="123.9" transform="matrix(1 7.538096e-03 -7.538096e-03 1 0.9606 -2.7532)" fill="#FFA640" width="0.8" height="4.3"/>
				</g>
				<g>
					<circle fill="#5EBBFE" cx="373.1" cy="96.1" r="1.3"/>
					<path fill="#5EBBFE" d="M379.1,102.2c-0.1,2.1-1.5,3.8-3.1,3.8l-6.7-0.3c-1.6-0.1-2.8-1.9-2.8-4l0.1-1.2
						c0.1-2.1,1.5-3.8,3.1-3.8l6.7,0.3c1.6,0.1,2.8,1.9,2.8,4L379.1,102.2z"/>
					<path fill="#96DDFB" d="M378.3,101.1l0,0.6l-10.9-0.5l0-0.6c0.1-1.9,1.3-3.3,2.7-3.3l5.8,0.3c0.1,0,0.2,0,0.3,0
						C377.5,97.9,378.4,99.4,378.3,101.1z"/>
					<polygon fill="#DFF3FC" points="375,97.6 371.4,101.4 370.4,101.3 373.9,97.5 					"/>
					<path fill="#DFF3FC" d="M372.7,101.4l3.5-3.8c-0.1,0,0.1,0,0,0l-0.6,0l-3.5,3.8L372.7,101.4z"/>
					
						<rect x="372.5" y="97.1" transform="matrix(0.9991 4.254850e-02 -4.254850e-02 0.9991 4.5609 -15.778)" fill="#5EBBFE" width="0.8" height="4.3"/>
				</g>
				<g>
					<circle fill="#32B6BB" cx="365.6" cy="69.3" r="1.3"/>
					<path fill="#32B6BB" d="M372,74.9c0.1,2.1-1.2,3.9-2.8,4l-6.7,0.2c-1.6,0.1-3-1.6-3.1-3.8l0-1.2c-0.1-2.1,1.2-3.9,2.8-4L369,70
						c1.6-0.1,3,1.6,3.1,3.8L372,74.9z"/>
					<path fill="#96DDFB" d="M371.2,73.9l0,0.6l-10.9,0.4l0-0.6c-0.1-1.9,1-3.4,2.4-3.5l5.8-0.2c0.1,0,0.2,0,0.3,0
						C370.1,70.7,371.1,72.1,371.2,73.9z"/>
					<polygon fill="#DFF3FC" points="367.6,70.6 364.3,74.7 363.3,74.7 366.5,70.6 					"/>
					<path fill="#DFF3FC" d="M365.6,74.6l3.2-4c-0.1,0,0.1,0,0,0l-0.6,0l-3.2,4.1L365.6,74.6z"/>
					
						<rect x="365.3" y="70.3" transform="matrix(0.9994 -3.317803e-02 3.317803e-02 0.9994 -2.2025 12.1721)" fill="#32B6BB" width="0.8" height="4.3"/>
				</g>
				<g>
					<circle fill="#FFA640" cx="346.3" cy="50.2" r="1.3"/>
					<path fill="#FFA640" d="M352.6,56c0,2.1-1.3,3.9-2.9,3.9l-6.7,0c-1.6,0-2.9-1.7-2.9-3.9l0-1.2c0-2.1,1.3-3.9,2.9-3.9l6.7,0
						c1.6,0,2.9,1.7,2.9,3.9L352.6,56z"/>
					<path fill="#96DDFB" d="M351.8,54.9l0,0.6l-10.9,0l0-0.6c0-1.9,1.1-3.4,2.6-3.4l5.9,0c0.1,0,0.2,0,0.3,0
						C350.8,51.8,351.8,53.2,351.8,54.9z"/>
					<polygon fill="#DFF3FC" points="348.3,51.5 344.9,55.5 343.8,55.5 347.2,51.5 					"/>
					<path fill="#DFF3FC" d="M346.2,55.5l3.4-3.9c-0.1,0,0.1,0,0,0l-0.6,0l-3.4,3.9L346.2,55.5z"/>
					<rect x="345.9" y="51.2" fill="#FFA640" width="0.8" height="4.3"/>
				</g>
				<g>
					<circle fill="#34B7BF" cx="292.3" cy="142.6" r="1.3"/>
					<path fill="#34B7BF" d="M285.8,148.2c-0.1,2.1,1.2,3.9,2.8,4l6.7,0.2c1.6,0.1,3-1.6,3.1-3.8l0-1.2c0.1-2.1-1.2-3.9-2.8-4
						l-6.7-0.2c-1.6-0.1-3,1.6-3.1,3.8L285.8,148.2z"/>
					<path fill="#96DDFB" d="M286.7,147.1l0,0.6l10.9,0.4l0-0.6c0.1-1.9-1-3.4-2.4-3.5l-5.8-0.2c-0.1,0-0.2,0-0.3,0
						C287.8,144,286.7,145.4,286.7,147.1z"/>
					<polygon fill="#DFF3FC" points="290.3,143.8 293.5,147.9 294.6,147.9 291.4,143.9 					"/>
					<path fill="#DFF3FC" d="M292.9,147.9l-3.2-4.1l-0.6,0c-0.1,0,0.1,0,0,0l3.2,4L292.9,147.9z"/>
					
						<rect x="291.8" y="143.5" transform="matrix(-0.9994 -3.495684e-02 3.495684e-02 -0.9994 579.09 301.4907)" fill="#34B7BF" width="0.8" height="4.3"/>
				</g>
				<g>
					<circle fill="#F44242" cx="272.5" cy="122.9" r="1.3"/>
					<path fill="#F44242" d="M266.3,128.8c0,2.1,1.3,3.9,3,3.9l6.7-0.1c1.6,0,2.9-1.8,2.9-3.9l0-1.2c0-2.1-1.3-3.9-3-3.9l-6.7,0.1
						c-1.6,0-2.9,1.8-2.9,3.9L266.3,128.8z"/>
					<path fill="#96DDFB" d="M267.1,127.7l0,0.6l10.9-0.1l0-0.6c0-1.9-1.2-3.4-2.6-3.4l-5.9,0c-0.1,0-0.2,0-0.3,0
						C268,124.5,267,126,267.1,127.7z"/>
					<polygon fill="#DFF3FC" points="270.5,124.3 273.9,128.2 275,128.2 271.6,124.3 					"/>
					<path fill="#DFF3FC" d="M273.3,128.2l-3.4-3.9l-0.6,0c-0.1,0,0.1,0,0,0l3.4,3.9L273.3,128.2z"/>
					
						<rect x="272.1" y="123.9" transform="matrix(-1 7.537893e-03 -7.537893e-03 -1 545.9684 250.0622)" fill="#F44242" width="0.8" height="4.3"/>
				</g>
				<g>
					<circle fill="#FFA640" cx="265.2" cy="96.1" r="1.3"/>
					<path fill="#FFA640" d="M259.1,102.2c0.1,2.1,1.5,3.8,3.1,3.8l6.7-0.3c1.6-0.1,2.8-1.9,2.8-4l-0.1-1.2
						c-0.1-2.1-1.5-3.8-3.1-3.8l-6.7,0.3c-1.6,0.1-2.8,1.9-2.8,4L259.1,102.2z"/>
					<path fill="#96DDFB" d="M259.9,101.1l0,0.6l10.9-0.5l0-0.6c-0.1-1.9-1.3-3.3-2.7-3.3l-5.8,0.3c-0.1,0-0.2,0-0.3,0
						C260.7,97.9,259.8,99.4,259.9,101.1z"/>
					<polygon fill="#DFF3FC" points="263.2,97.6 266.8,101.4 267.9,101.3 264.3,97.5 					"/>
					<path fill="#DFF3FC" d="M266.2,101.4l-3.5-3.8l-0.6,0c-0.1,0,0.1,0,0,0l3.5,3.8L266.2,101.4z"/>
					
						<rect x="264.9" y="97.1" transform="matrix(-0.9991 4.253637e-02 -4.253637e-02 -0.9991 534.5673 187.1375)" fill="#FFA640" width="0.8" height="4.3"/>
				</g>
				<g>
					<circle fill="#9C7DC9" cx="272.7" cy="69.3" r="1.3"/>
					<path fill="#9C7DC9" d="M266.2,74.9c-0.1,2.1,1.2,3.9,2.8,4l6.7,0.2c1.6,0.1,3-1.6,3.1-3.8l0-1.2c0.1-2.1-1.2-3.9-2.8-4
						l-6.7-0.2c-1.6-0.1-3,1.6-3.1,3.8L266.2,74.9z"/>
					<path fill="#96DDFB" d="M267,73.9l0,0.6l10.9,0.4l0-0.6c0.1-1.9-1-3.4-2.4-3.5l-5.8-0.2c-0.1,0-0.2,0-0.3,0
						C268.1,70.7,267.1,72.1,267,73.9z"/>
					<polygon fill="#DFF3FC" points="270.6,70.6 273.9,74.7 275,74.7 271.7,70.6 					"/>
					<path fill="#DFF3FC" d="M273.3,74.6l-3.2-4.1l-0.6,0c-0.1,0,0.1,0,0,0l3.2,4L273.3,74.6z"/>
					
						<rect x="272.2" y="70.3" transform="matrix(-0.9994 -3.317803e-02 3.317803e-02 -0.9994 542.5598 153.9047)" fill="#9C7DC9" width="0.8" height="4.3"/>
				</g>
				<g>
					<circle fill="#5EBBFE" cx="291.9" cy="50.2" r="1.3"/>
					<path fill="#5EBBFE" d="M285.6,56c0,2.1,1.3,3.9,2.9,3.9l6.7,0c1.6,0,2.9-1.7,2.9-3.9l0-1.2c0-2.1-1.3-3.9-2.9-3.9l-6.7,0
						c-1.6,0-2.9,1.7-2.9,3.9L285.6,56z"/>
					<path fill="#96DDFB" d="M286.4,54.9l0,0.6l10.9,0l0-0.6c0-1.9-1.1-3.4-2.6-3.4l-5.9,0c-0.1,0-0.2,0-0.3,0
						C287.4,51.8,286.4,53.2,286.4,54.9z"/>
					<polygon fill="#DFF3FC" points="289.9,51.5 293.3,55.5 294.4,55.5 291,51.5 					"/>
					<path fill="#DFF3FC" d="M292.7,55.5l-3.4-3.9l-0.6,0c-0.1,0,0.1,0,0,0l3.4,3.9L292.7,55.5z"/>
					<rect x="291.5" y="51.2" fill="#5EBBFE" width="0.8" height="4.3"/>
				</g>
				<circle fill="#E6CEA0" cx="319.3" cy="96.4" r="9.8"/>
				<path fill="#D42728" d="M319.3,102.7c3.5,0,6.3-2.8,6.3-6.3H313C313,99.9,315.8,102.7,319.3,102.7z"/>
				<path fill="#F03B3C" d="M319.3,90.1c-3.5,0-6.3,2.8-6.3,6.3h12.6C325.6,93,322.7,90.1,319.3,90.1z"/>
			</g>
			<g id="Additional_Elements">
				<rect x="449.8" y="160.4" fill="#A86A3E" width="51.3" height="30"/>
				<rect x="459" y="160.4" fill="#75372C" width="33" height="19.3"/>
				<ellipse fill="#F5E6C9" cx="489.4" cy="161.5" rx="3" ry="3.1"/>
				<path fill="#90C04A" d="M451.8,161.7c0,1.7-1.3,3.1-2.9,3.1c-1.6,0-3-1.4-3-3.1c0-0.2,0.2-0.4,0.3-0.7h5.6
					C451.8,161.2,451.8,161.4,451.8,161.7z"/>
				<ellipse fill="#F5E6C9" cx="454.6" cy="161.5" rx="2.9" ry="3.1"/>
				<ellipse fill="#90C04A" cx="460.5" cy="161.5" rx="2.9" ry="3.1"/>
				<ellipse fill="#F5E6C9" cx="466.3" cy="161.5" rx="2.9" ry="3.1"/>
				<ellipse fill="#90C04A" cx="472.1" cy="161.5" rx="2.9" ry="3.1"/>
				<ellipse fill="#F5E6C9" cx="477.9" cy="161.5" rx="2.9" ry="3.1"/>
				<ellipse fill="#90C04A" cx="483.7" cy="161.5" rx="2.9" ry="3.1"/>
				<ellipse fill="#90C04A" cx="495.3" cy="161.5" rx="2.9" ry="3.1"/>
				<path fill="#F5E6C9" d="M504,161.5c0,1.7-1.3,3.1-2.9,3.1c-1.6,0-2.9-1.4-2.9-3.1c0-0.2,0-0.4,0-0.5h5.6
					C503.9,161.2,504,161.4,504,161.5z"/>
				<g>
					<g>
						<polygon fill="#90C04A" points="451.8,161.6 446,161.6 455.9,148.2 459.9,148.2 						"/>
						<polygon fill="#F5E6C9" points="457.6,161.6 451.7,161.6 459.9,148.2 463.9,148.2 						"/>
						<polygon fill="#90C04A" points="463.5,161.6 457.6,161.6 463.9,148.2 467.9,148.2 						"/>
						<polygon fill="#F5E6C9" points="469.2,161.6 463.3,161.6 467.8,148.2 471.9,148.2 						"/>
						<polygon fill="#90C04A" points="475.1,161.6 469.2,161.6 471.9,148.2 475.9,148.2 						"/>
						<polygon fill="#F5E6C9" points="480.8,161.6 474.9,161.6 475.8,148.2 479.8,148.2 						"/>
						<polygon fill="#90C04A" points="486.7,161.6 480.8,161.6 479.8,148.2 483.9,148.2 						"/>
						<polygon fill="#90C04A" points="498.3,161.6 492.5,161.6 487.8,148.2 491.8,148.2 						"/>
						<polygon fill="#F5E6C9" points="492.4,161.6 486.6,161.6 483.8,148.2 487.8,148.2 						"/>
						<polygon fill="#F5E6C9" points="504,161.6 498.2,161.6 491.7,148.2 495.7,148.2 						"/>
					</g>
				</g>
				<g>
					<circle fill="#F5E6C9" cx="465.4" cy="172.9" r="3.8"/>
					<circle fill="#D42728" cx="465.4" cy="172.9" r="3.1"/>
					<circle fill="#F5E6C9" cx="465.4" cy="172.9" r="2.5"/>
					<circle fill="#D42728" cx="465.4" cy="172.9" r="1.8"/>
					<circle fill="#F5E6C9" cx="465.4" cy="172.9" r="1.1"/>
					<circle fill="#D42728" cx="465.4" cy="172.9" r="0.6"/>
				</g>
				<g>
					<circle fill="#F5E6C9" cx="475.7" cy="172.9" r="3.8"/>
					<circle fill="#D42728" cx="475.7" cy="172.9" r="3.1"/>
					<circle fill="#F5E6C9" cx="475.7" cy="172.9" r="2.5"/>
					<circle fill="#D42728" cx="475.7" cy="172.9" r="1.8"/>
					<circle fill="#F5E6C9" cx="475.7" cy="172.9" r="1.1"/>
					<circle fill="#D42728" cx="475.7" cy="172.9" r="0.6"/>
				</g>
				<g>
					<circle fill="#F5E6C9" cx="485.7" cy="172.9" r="3.8"/>
					<circle fill="#D42728" cx="485.7" cy="172.9" r="3.1"/>
					<circle fill="#F5E6C9" cx="485.7" cy="172.9" r="2.5"/>
					<circle fill="#D42728" cx="485.7" cy="172.9" r="1.8"/>
					<circle fill="#F5E6C9" cx="485.7" cy="172.9" r="1.1"/>
					<circle fill="#D42728" cx="485.7" cy="172.9" r="0.6"/>
				</g>
			</g>
			<g id="_Striped_Pavilion">
				<rect x="434.4" y="140.8" fill="#EE3A3B" width="7.4" height="49.7"/>
				<path fill="#F2CEB6" d="M441.8,140.8v2.4c-0.6,1.6-2.2,2.7-4,2.7c-2.4,0-4.3-1.9-4.3-4.2c0-0.3,0-0.6,0.1-0.8H441.8z"/>
				<path fill="#EE3A3B" d="M446,141.4c0,2.5-1.4,4.4-3.1,4.4c-1.7,0-3.1-2-3.1-4.4c0-0.2,0-0.4,0-0.6h6.2
					C446,141,446,141.2,446,141.4z"/>
				<g>
					<rect x="346.1" y="140.8" fill="#E7BFA4" width="95.7" height="49.7"/>
					<rect x="346.1" y="140.8" fill="#E7BFA4" width="95.7" height="49.7"/>
					<rect x="346.1" y="140.8" fill="#EE3A3B" width="7.4" height="49.7"/>
					<rect x="360.7" y="140.8" fill="#EE3A3B" width="7.4" height="49.7"/>
					<rect x="375.4" y="140.8" fill="#EE3A3B" width="7.4" height="49.7"/>
					<rect x="390" y="140.8" fill="#EE3A3B" width="7.4" height="49.7"/>
					<rect x="404.7" y="140.8" fill="#EE3A3B" width="7.4" height="49.7"/>
					<rect x="419.3" y="140.8" fill="#EE3A3B" width="7.4" height="49.7"/>
					<polygon fill="#F2CEB6" points="341.8,140.8 393.9,105.9 446,140.8 					"/>
					<polygon fill="#EE3A3B" points="393.9,105.9 388.9,140.8 398.9,140.8 					"/>
					<polygon fill="#EE3A3B" points="393.9,105.9 403,140.8 412.9,140.8 					"/>
					<polygon fill="#EE3A3B" points="393.9,105.9 418.1,140.8 428,140.8 					"/>
					<polyline fill="#EE3A3B" points="393.9,105.9 433.5,140.8 441.9,140.8 393.9,105.9 					"/>
					<polygon fill="#EE3A3B" points="393.9,105.9 384.9,140.8 374.9,140.8 					"/>
					<polygon fill="#EE3A3B" points="393.9,105.9 370,140.8 360.1,140.8 					"/>
					<polyline fill="#EE3A3B" points="393.9,105.9 354.3,140.8 345.5,140.8 393.9,105.9 					"/>
					<path fill="#F2CEB6" d="M398.9,141.2c0,2.6-2.2,4.7-5,4.7c-2.7,0-5-2.1-5-4.7c0-0.1,0-0.3,0-0.4h9.9
						C398.9,140.9,398.9,141.1,398.9,141.2z"/>
					<path fill="#F2CEB6" d="M385.1,141.2c0,2.6-2.3,4.6-5.1,4.6c-2.8,0-5.1-2.1-5.1-4.6c0-0.1,0-0.3,0-0.4H385
						C385.1,140.9,385.1,141.1,385.1,141.2z"/>
					<path fill="#F2CEB6" d="M346.1,143.3c0.8,1.2,2.2,2,3.8,2c2.4,0,4.4-1.8,4.4-4.1c0-0.2,0-0.3,0-0.5h-8.2V143.3z"/>
					<path fill="#F2CEB6" d="M369.8,141.4c0,2.5-2.2,4.4-4.9,4.4c-2.7,0-4.9-2-4.9-4.4c0-0.2,0-0.4,0-0.6h9.7
						C369.8,141,369.8,141.2,369.8,141.4z"/>
					<path fill="#EE3A3B" d="M360.2,141.4c0,2.5-1.4,4.4-3.1,4.4c-1.7,0-3.1-2-3.1-4.4c0-0.2,0-0.4,0-0.6h6.2
						C360.2,141,360.2,141.2,360.2,141.4z"/>
					<path fill="#EE3A3B" d="M348.1,141.4c0,2.5-1.4,4.4-3.1,4.4c-1.7,0-3.1-2-3.1-4.4c0-0.2,0-0.4,0-0.6h6.2
						C348.1,141,348.1,141.2,348.1,141.4z"/>
					<path fill="#EE3A3B" d="M375.9,141.4c0,2.5-1.4,4.4-3.1,4.4c-1.7,0-3.1-2-3.1-4.4c0-0.2,0-0.4,0-0.6h6.2
						C375.9,141,375.9,141.2,375.9,141.4z"/>
					<path fill="#EE3A3B" d="M390,141.4c0,2.5-1.4,4.4-3.1,4.4c-1.7,0-3.1-2-3.1-4.4c0-0.2,0-0.4,0-0.6h6.2
						C390,141,390,141.2,390,141.4z"/>
					<path fill="#EE3A3B" d="M404,141.4c0,2.5-1.4,4.4-3.1,4.4c-1.7,0-3.1-2-3.1-4.4c0-0.2,0-0.4,0-0.6h6.2
						C404,141,404,141.2,404,141.4z"/>
					<path fill="#EE3A3B" d="M418.7,141.4c0,2.5-1.4,4.4-3.1,4.4c-1.7,0-3.1-2-3.1-4.4c0-0.2,0-0.4,0-0.6h6.2
						C418.7,141,418.7,141.2,418.7,141.4z"/>
					<path fill="#EE3A3B" d="M434.2,141.4c0,2.5-1.4,4.4-3.1,4.4s-3.1-2-3.1-4.4c0-0.2,0-0.4,0-0.6h6.2
						C434.2,141,434.2,141.2,434.2,141.4z"/>
					<path fill="#F2CEB6" d="M412.9,140.9c0,2.7-2.2,4.9-4.9,4.9c-2.7,0-4.9-2.2-4.9-4.9c0-0.1,0-0.1,0-0.2h9.8
						C412.9,140.8,412.9,140.9,412.9,140.9z"/>
					<path fill="#F2CEB6" d="M428,141.3c0,2.5-2.2,4.5-4.9,4.5c-2.7,0-4.9-2-4.9-4.5c0-0.2,0-0.3,0-0.5h9.8
						C428,140.9,428,141.1,428,141.3z"/>
					<rect x="433.2" y="140.8" fill="#EE3A3B" width="7.4" height="49.7"/>
					<path fill="#F2CEB6" d="M441.9,141.3c0,2.5-2.2,4.5-4.9,4.5c-2.7,0-4.9-2-4.9-4.5c0-0.2,0-0.3,0-0.5h9.8
						C441.9,140.9,441.9,141.1,441.9,141.3z"/>
					<polygon fill="#7D3B2F" points="379.8,190.5 393.9,161 408,190.5 					"/>
				</g>
			</g>
			<g id="Fancy_Vintage_Carousels_1_">
				<g>
					<rect x="498.3" y="112.7" fill="#E2A54D" width="12.6" height="77.7"/>
					<rect x="498.3" y="112.7" fill="#E2B35E" width="1.8" height="77.7"/>
					<rect x="501.8" y="112.7" fill="#E2B35E" width="1.8" height="77.7"/>
					<rect x="505.3" y="112.7" fill="#E2B35E" width="1.8" height="77.7"/>
					<rect x="508.9" y="112.7" fill="#E2B35E" width="1.8" height="77.7"/>
				</g>
				<g>
					<polygon fill="#A687D7" points="454.1,113.7 504.6,59.9 555.1,113.7 					"/>
					<polygon fill="#A0B0EB" points="465.2,101.9 504.6,59.9 543.9,101.9 					"/>
				</g>
				<g>
					
						<line fill="none" stroke="#A687D7" stroke-width="1.8203" stroke-miterlimit="10" x1="467.8" y1="127.4" x2="471.1" y2="113.7"/>
					
						<line fill="none" stroke="#A687D7" stroke-width="2.2066" stroke-miterlimit="10" x1="459.5" y1="132.4" x2="462.9" y2="112.2"/>
					
						<line fill="none" stroke="#A687D7" stroke-width="1.9092" stroke-miterlimit="10" x1="477.3" y1="113.7" x2="475.5" y2="133.2"/>
					
						<line fill="none" stroke="#A687D7" stroke-width="1.645" stroke-miterlimit="10" x1="484.6" y1="113.3" x2="484.4" y2="127.7"/>
					
						<line fill="none" stroke="#A687D7" stroke-width="2.4313" stroke-miterlimit="10" x1="491.7" y1="113.7" x2="492.5" y2="133.2"/>
					
						<line fill="none" stroke="#A687D7" stroke-width="2.4313" stroke-miterlimit="10" x1="502.4" y1="108.1" x2="503.3" y2="127.5"/>
					
						<line fill="none" stroke="#A687D7" stroke-width="1.8203" stroke-miterlimit="10" x1="513.4" y1="113.7" x2="514.9" y2="131.9"/>
					<line fill="none" stroke="#A687D7" stroke-width="1.8203" stroke-miterlimit="10" x1="522" y1="113.7" x2="524" y2="127.9"/>
					
						<line fill="none" stroke="#A687D7" stroke-width="1.8203" stroke-miterlimit="10" x1="538.3" y1="113.9" x2="541.9" y2="127.7"/>
					<line fill="none" stroke="#A687D7" stroke-width="2.1528" stroke-miterlimit="10" x1="546.7" y1="113" x2="550.9" y2="131.2"/>
					
						<line fill="none" stroke="#A687D7" stroke-width="2.2614" stroke-miterlimit="10" x1="528.5" y1="113.4" x2="532.7" y2="133.3"/>
					<path fill="#EE3C3A" d="M551.5,129c1.2,1,2.5,4,2.5,4s-4,1.3-5.5,1c-1.6-0.3-1.7-2.1,0.4-3.7C548.7,128,550,127.7,551.5,129z"
						/>
					<path fill="#EE3C3A" d="M532.8,132c1.2,1,2.5,4,2.5,4s-4,1.3-5.5,1c-1.6-0.3-1.7-2.1,0.4-3.7C529.9,131,531.3,130.7,532.8,132z
						"/>
					<path fill="#EE3C3A" d="M515.8,130.2c1.2,1,2.5,4,2.5,4s-4,1.3-5.5,1c-1.6-0.3-1.7-2.1,0.4-3.7
						C513,129.2,514.3,128.9,515.8,130.2z"/>
					<path fill="#EE3C3A" d="M492.6,131c1.2,1,2.5,4,2.5,4s-4,1.3-5.5,1c-1.6-0.3-1.7-2.1,0.4-3.7C489.7,130,491.1,129.7,492.6,131z
						"/>
					<path fill="#EE3C3A" d="M476.4,130.2c1.2,1,2.5,4,2.5,4s-4,1.3-5.5,1c-1.6-0.3-1.7-2.1,0.4-3.7
						C473.6,129.2,474.9,128.9,476.4,130.2z"/>
					<path fill="#EE3C3A" d="M460.4,129.7c1.2,1,2.5,4,2.5,4s-4,1.3-5.5,1c-1.6-0.3-1.7-2.1,0.4-3.7
						C457.6,128.7,458.9,128.4,460.4,129.7z"/>
					<path fill="#F85557" d="M468.5,125c0.8,0.7,1.8,2.9,1.8,2.9s-2.9,1-4,0.7c-1.2-0.2-1.3-1.5,0.3-2.7
						C466.4,124.3,467.4,124.1,468.5,125z"/>
					<path fill="#F85557" d="M485.2,125c0.8,0.7,1.8,2.9,1.8,2.9s-2.9,1-4,0.7c-1.2-0.2-1.3-1.5,0.3-2.7
						C483.2,124.3,484.1,124.1,485.2,125z"/>
					<path fill="#F85557" d="M504.5,125c0.8,0.7,1.8,2.9,1.8,2.9s-2.9,1-4,0.7c-1.2-0.2-1.3-1.5,0.3-2.7
						C502.5,124.3,503.4,124.1,504.5,125z"/>
					<path fill="#F85557" d="M524.6,126.7c0.8,0.7,1.8,2.9,1.8,2.9s-2.9,1-4,0.7c-1.2-0.2-1.3-1.5,0.3-2.7
						C522.5,126,523.5,125.7,524.6,126.7z"/>
					<path fill="#F85557" d="M542.5,126.2c0.8,0.7,1.8,2.9,1.8,2.9s-2.9,1-4,0.7c-1.2-0.2-1.3-1.5,0.3-2.7
						C540.5,125.4,541.4,125.2,542.5,126.2z"/>
				</g>
			</g>
			<g id="Fancy_Vintage_Carousels">
				<g>
					<polygon fill="#FFA640" points="266.2,149.2 235.1,149.2 221.9,136 278.8,136 					"/>
					<g>
						<polygon fill="#34B8BD" points="285.7,120.3 284.1,125.9 282.7,130.8 281.2,136.1 220.3,136.1 218.5,130.8 216.8,125.9 
							215,120.3 						"/>
						<polygon fill="#3BCED6" points="284.2,125.9 282.8,130.8 218.6,130.8 216.9,125.9 						"/>
					</g>
					<g>
						<rect x="235" y="149" fill="#FFB44A" width="31.2" height="41.6"/>
						<rect x="240.1" y="149" fill="#FFC45E" width="4.6" height="41.6"/>
						<rect x="249.4" y="149" fill="#FFC45E" width="4.6" height="41.6"/>
						<rect x="258.6" y="149" fill="#FFC45E" width="4.6" height="41.6"/>
					</g>
				</g>
				<circle fill="#F03C3B" cx="218" cy="152.1" r="2.2"/>
				<circle fill="#F03C3B" cx="226.3" cy="156.1" r="2.2"/>
				<circle fill="#F03C3B" cx="233.6" cy="156.1" r="2.2"/>
				<circle fill="#F03C3B" cx="242.9" cy="154.8" r="2.2"/>
				<circle fill="#F03C3B" cx="253.5" cy="149.9" r="2.2"/>
				<circle fill="#F03C3B" cx="267.5" cy="156.1" r="2.2"/>
				<circle fill="#F03C3B" cx="275.7" cy="152.5" r="2.2"/>
				<circle fill="#F03C3B" cx="284.2" cy="154.4" r="2.2"/>
				<line fill="none" stroke="#34B8BD" stroke-miterlimit="10" x1="218.5" y1="149.9" x2="221.9" y2="136"/>
				<line fill="none" stroke="#34B8BD" stroke-miterlimit="10" x1="228.1" y1="136" x2="226.3" y2="153.9"/>
				<line fill="none" stroke="#34B8BD" stroke-miterlimit="10" x1="233.4" y1="136" x2="233.4" y2="153.9"/>
				<line fill="none" stroke="#34B8BD" stroke-miterlimit="10" x1="242.4" y1="136" x2="242.9" y2="152.5"/>
				<line fill="none" stroke="#34B8BD" stroke-miterlimit="10" x1="253.5" y1="136" x2="253.5" y2="147.7"/>
				<line fill="none" stroke="#34B8BD" stroke-miterlimit="10" x1="266" y1="136" x2="267.5" y2="154.4"/>
				<line fill="none" stroke="#34B8BD" stroke-miterlimit="10" x1="273.3" y1="136" x2="275.3" y2="150.4"/>
				<line fill="none" stroke="#34B8BD" stroke-miterlimit="10" x1="278.8" y1="136" x2="284.2" y2="152.1"/>
				<polygon opacity="0.3" fill="#FFB44A" points="285.7,120.3 251.3,120.3 251.3,190.6 253.9,190.6 258.6,190.6 263.2,190.6 
					266.2,190.6 266.2,149.2 266.2,149.2 278.7,136.1 281.2,136.1 282.7,130.8 282.8,130.8 284.2,125.9 284.1,125.9 				"/>
			</g>
			<g>
				<g>
					<ellipse fill="#90C04A" cx="523.2" cy="160.3" rx="10.4" ry="8.6"/>
					<rect x="522.1" y="165.1" fill="#A86A3E" width="1.5" height="28.1"/>
				</g>
				<g>
					<ellipse fill="#90C04A" cx="523.2" cy="160.3" rx="10.4" ry="8.6"/>
					<ellipse fill="#6E9922" cx="523.2" cy="160.3" rx="7.8" ry="6.4"/>
					<rect x="522.1" y="165.1" fill="#A86A3E" width="1.5" height="28.1"/>
				</g>
				<g>
					<ellipse fill="#90C04A" cx="511.6" cy="169" rx="7" ry="6.3"/>
					<rect x="510.9" y="172.6" fill="#A86A3E" width="1" height="20.7"/>
				</g>
				<g>
					<ellipse fill="#90C04A" cx="533" cy="173.8" rx="6.2" ry="5.1"/>
					<rect x="532.4" y="176.6" fill="#A86A3E" width="0.9" height="16.6"/>
				</g>
				<g>
					<ellipse fill="#90C04A" cx="508.1" cy="179.1" rx="4.3" ry="3.7"/>
					<rect x="507.7" y="181.2" fill="#A86A3E" width="0.6" height="12.1"/>
				</g>
				<g>
					<ellipse fill="#90C04A" cx="543.5" cy="181.1" rx="4.3" ry="3.7"/>
					<rect x="543.1" y="183.1" fill="#A86A3E" width="0.6" height="12.1"/>
				</g>
				<g>
					<ellipse fill="#90C04A" cx="280.6" cy="167.3" rx="8.6" ry="8.2"/>
					<ellipse fill="#689B10" cx="280.6" cy="167.3" rx="6.5" ry="6.2"/>
					<rect x="280.3" y="172" fill="#A86A3E" width="1.2" height="27"/>
				</g>
				<g>
					<ellipse fill="#90C04A" cx="285.2" cy="180" rx="4.9" ry="4.8"/>
					<rect x="285" y="182.7" fill="#A86A3E" width="0.7" height="15.9"/>
				</g>
				<g>
					<ellipse fill="#90C04A" cx="329.2" cy="166.2" rx="7.9" ry="7.5"/>
					<ellipse fill="#689B10" cx="329.2" cy="166.2" rx="5.9" ry="5.6"/>
					<rect x="328.8" y="170.4" fill="#A86A3E" width="1.1" height="24.7"/>
				</g>
				<g>
					<ellipse fill="#90C04A" cx="332.4" cy="180.6" rx="3.7" ry="3.7"/>
					<rect x="332.2" y="182.7" fill="#A86A3E" width="0.5" height="12.1"/>
				</g>
			</g>
			<g>
				<ellipse fill="#90C04A" cx="429.5" cy="166.6" rx="6.6" ry="6.3"/>
				<ellipse fill="#689B10" cx="429.5" cy="166.6" rx="4.9" ry="4.7"/>
				<rect x="429.2" y="170.1" fill="#A86A3E" width="0.9" height="20.7"/>
			</g>
			<g>
				<ellipse fill="#689B10" cx="435.4" cy="177.9" rx="3.8" ry="3.3"/>
				<rect x="435" y="179.8" fill="#A86A3E" width="0.5" height="10.7"/>
			</g>
			<g id="tree">
				<ellipse fill="#90C04A" cx="343.5" cy="173.9" rx="4.4" ry="4.4"/>
				<rect x="343.3" y="176.3" fill="#A86A3E" width="0.6" height="14.3"/>
			</g>
			<path opacity="0.65" fill="#FEFFFD" d="M548.7,62.6c-0.3,0-0.5,0.1-0.8,0.2c-0.3-0.5-0.7-0.8-1.2-0.8c-0.2,0-0.3,0-0.4,0.1
				c-0.2-1.1-0.8-1.9-1.4-1.9c-0.3,0-0.6,0.2-0.8,0.4c-0.4-0.9-1.1-1.5-1.8-1.5c-0.9,0-1.6,0.7-2,1.8c0-0.6,0-1-0.4-1.7
				c-0.8-1.6-1.5-2.1-2.5-2.2c-2.4-0.4-2.2,2.9-2.3,4.5c-1-0.3-2.5,2-1.4,2.8l3.4,0.1c0,0,0,0.1,0,0.1h1.1h1.2h1h0.7h0.9l3.8,0.1
				c0,0,0,0,0-0.1h0.3h1.1h0.9h2c0-0.1,0-0.2,0-0.2C550.2,63.4,549.5,62.6,548.7,62.6z"/>
			<path opacity="0.29" fill="#FEFFFD" d="M429,42.7c-0.3,0-0.5,0.1-0.7,0.2c-0.3-0.4-0.7-0.7-1.1-0.7c-0.1,0-0.3,0-0.4,0.1
				c-0.2-1-0.7-1.7-1.3-1.7c-0.3,0-0.5,0.1-0.7,0.4c-0.4-0.8-1-1.3-1.7-1.3c-0.8,0-1.5,0.7-1.8,1.7c0-0.5,0-0.9-0.4-1.6
				c-0.7-1.4-1.4-1.9-2.3-2.1c-2.2-0.3-2,2.7-2.1,4.1c-0.9-0.2-2.3,1.8-1.3,2.6l3.1,0.1c0,0,0,0.1,0,0.1h1h1.1h0.9h0.6h0.8l3.5,0.1
				c0,0,0,0,0-0.1h0.3h1h0.9h1.8c0-0.1,0-0.1,0-0.2C430.3,43.4,429.7,42.7,429,42.7z"/>
			<path opacity="0.65" fill="#FEFFFD" d="M404.1,52.4c-0.4,0-0.8,0.1-1.1,0.4c-0.4-0.7-1.1-1.2-1.8-1.2c-0.2,0-0.5,0-0.7,0.1
				c-0.3-1.6-1.1-2.8-2.1-2.8c-0.4,0-0.9,0.2-1.2,0.7c-0.6-1.3-1.6-2.2-2.8-2.2c-1.3,0-2.4,1.1-3,2.8c0-0.8,0-1.5-0.6-2.6
				c-1.2-2.4-2.3-3.2-3.7-3.4c-3.6-0.6-3.3,4.4-3.4,6.8c-1.5-0.4-3.8,3-2.1,4.2l5.1,0.1c0,0,0,0.1,0,0.1h1.7h1.8h1.5h1h1.3l5.8,0.1
				c0,0,0-0.1,0-0.1h0.5h1.6h1.4h3c0-0.1,0-0.2,0-0.4C406.4,53.5,405.4,52.4,404.1,52.4z"/>
			<path fill="#FEFFFD" d="M231.5,25.1c-0.3,0-0.6,0.1-0.8,0.3c-0.3-0.5-0.8-0.9-1.3-0.9c-0.2,0-0.3,0-0.5,0.1c-0.2-1.2-0.8-2-1.5-2
				c-0.3,0-0.6,0.2-0.9,0.5c-0.4-1-1.2-1.6-2-1.6c-0.8,0-1.4,0.5-1.9,1.4c-0.4-1.2-1.1-2-1.9-2c-0.4,0-0.9,0.2-1.2,0.7
				c-0.6-1.3-1.6-2.2-2.8-2.2c-1.6,0-3,1.8-3.3,4.1c-0.2-0.1-0.4-0.1-0.6-0.1c-0.9,0-1.7,0.8-2.1,2c0,0,0,0,0,0
				c-0.9,0-1.7,0.9-1.8,2.1h1.7h1.8h0.2h1.2h0.1h1h0.2h1.1h0.7h1.7h0.1h0.5h0.4h0.3h0.1h1.1h0.1h0.2h0.9h0h0h0.7h0.4h0.5h0.5h0.9
				h0.4h0.4h0.5h0.9h0.8h0.1h1.2h1h2.2c0-0.1,0-0.2,0-0.3C233.2,25.9,232.4,25.1,231.5,25.1z"/>
			<path opacity="0.45" fill="#FEFFFD" d="M290.4,42c-0.3,0-0.6,0.1-0.8,0.3c-0.3-0.5-0.8-0.9-1.3-0.9c-0.2,0-0.3,0-0.5,0.1
				c-0.2-1.2-0.8-2-1.5-2c-0.3,0-0.6,0.2-0.9,0.5c-0.4-1-1.2-1.6-2-1.6c-1,0-1.8,0.8-2.2,2c-0.3-0.6-0.7-0.9-1.2-0.9
				c-0.3,0-0.6,0.2-0.9,0.5c-0.4-1-1.2-1.6-2-1.6c-1.2,0-2.2,1.3-2.4,2.9c-0.1-0.1-0.3-0.1-0.4-0.1c-0.7,0-1.2,0.6-1.5,1.4
				c0,0,0,0,0,0c-0.7,0-1.2,0.7-1.3,1.5h1.2h1.3h1.1h0.7h1.8h0.9h0.3h0.1h1.2h0.2h0.9h0h0.7h0.4h1h1.3h0.4h0.5h0.9h0.9h1.2h1h2.2
				c0-0.1,0-0.2,0-0.3C292,42.8,291.3,42,290.4,42z"/>
			<path opacity="0.65" fill="#FEFFFD" d="M480.9,49.6c0-1,0-2.2-1-2.7c-1.1-0.6-2.3-0.1-3.2,0.6c-0.1-1,0-1.7-0.6-2.9
				c-1.2-2.4-2.3-3.2-3.7-3.4c-3.4-0.5-3.3,4-3.4,6.5c-0.2-0.1-0.5-0.2-0.8-0.2c-0.6,0-1.1,0.3-1.5,0.8c-0.8-1.7-2.1-2.8-3.5-2.8
				c-2.1,0-3.8,2.2-4.2,5.2c-0.2-0.1-0.5-0.1-0.8-0.1c-1.2,0-2.2,1-2.6,2.5c0,0,0,0-0.1,0c-1.2,0-2.2,1.2-2.2,2.7h2.1h2.3h1.9h1.3
				h4.8h0.8h2.4h1.6h2.1h1.8h3.8c0-0.2,0-0.3,0-0.5c0-1.2-0.6-2.3-1.4-2.8l8.2,0.1C485.3,50.4,483,48.1,480.9,49.6z M474.1,52.5
				C474.1,52.5,474,52.4,474.1,52.5L474.1,52.5C474.1,52.4,474.1,52.5,474.1,52.5z"/>
			<path fill="#FEFFFD" d="M549.5,30c-0.8,0-1.5,0.2-2.1,0.6c-0.8-1.3-2-2.2-3.3-2.2c-0.4,0-0.8,0.1-1.2,0.2c-0.6-3-2.1-5.2-3.9-5.2
				c-0.8,0-1.6,0.4-2.2,1.2c-1.1-2.4-3-4-5.1-4c-3,0-5.5,3.2-6,7.5c-0.4-0.1-0.7-0.2-1.1-0.2c-1.7,0-3.2,1.5-3.8,3.6
				c0,0-0.1,0-0.1,0c-1.7,0-3.1,1.7-3.2,3.9h3.1h3.4h2.8h1.8h6.9h1.1h3.5h2.3h3h2.6h5.6c0-0.2,0-0.4,0-0.7
				C553.7,32.1,551.8,30,549.5,30z"/>
			<path opacity="0.91" fill="#FEFFFD" d="M267.4,64.7c-0.8,0-1.5,0.2-2.1,0.6c-0.8-1.3-2-2.2-3.3-2.2c-0.4,0-0.8,0.1-1.2,0.2
				c-0.6-3-2.1-5.2-3.9-5.2c-0.8,0-1.6,0.4-2.2,1.2c-1.1-2.4-3-4-5.1-4c-3,0-5.5,3.2-6,7.5c-0.4-0.1-0.7-0.2-1.1-0.2
				c-1.7,0-3.2,1.5-3.8,3.6c0,0-0.1,0-0.1,0c-1.7,0-3.1,1.7-3.2,3.9h3.1h3.4h2.8h1.8h6.9h1.1h3.5h2.3h3h2.6h5.6c0-0.2,0-0.4,0-0.7
				C271.5,66.8,269.7,64.7,267.4,64.7z"/>
			<path opacity="0.64" fill="#FEFFFD" d="M370.5,29.2c-0.8,0-1.5,0.2-2.1,0.6c-0.8-1.3-2-2.2-3.3-2.2c-0.4,0-0.8,0.1-1.2,0.2
				c-0.6-3-2.1-5.2-3.9-5.2c-0.8,0-1.6,0.4-2.2,1.2c-1.1-2.4-3-4-5.1-4c-3,0-5.5,3.2-6,7.5c-0.4-0.1-0.7-0.2-1.1-0.2
				c-1.7,0-3.2,1.5-3.8,3.6c0,0-0.1,0-0.1,0c-1.7,0-3.1,1.7-3.2,3.9h3.1h3.4h2.8h1.8h6.9h1.1h3.5h2.3h3h2.6h5.6c0-0.2,0-0.4,0-0.7
				C374.6,31.3,372.7,29.2,370.5,29.2z"/>
			<path opacity="0.57" fill="#FEFFFD" d="M430.4,85.4c-0.8,0-1.5,0.3-2.1,0.8c-0.8-1.7-2-2.7-3.4-2.7c-0.4,0-0.8,0.1-1.2,0.3
				c-0.6-3.8-2.1-6.5-3.9-6.5c-0.8,0-1.6,0.6-2.2,1.5c-1.1-3.1-3-5.1-5.1-5.1c-3,0-5.5,4-6.1,9.4c-0.4-0.2-0.7-0.3-1.1-0.3
				c-1.7,0-3.2,1.9-3.8,4.5c0,0-0.1,0-0.1,0c-1.7,0-3.1,2.2-3.3,4.9h3.1h3.4h2.8h1.9h7h1.1h3.6h2.3h3h2.7h5.6c0-0.3,0-0.6,0-0.9
				C434.6,88.1,432.7,85.4,430.4,85.4z"/>
			<rect x="186.5" y="190.3" fill="#73C000" width="383.1" height="37.3"/>
			<g>
				<g>
					<ellipse fill="#90C04A" cx="224.2" cy="171.6" rx="12" ry="11.5"/>
					<rect x="223.7" y="178" fill="#A86A3E" width="1.7" height="37.7"/>
				</g>
				<g>
					<ellipse fill="#90C04A" cx="236.9" cy="183.6" rx="8.8" ry="8.4"/>
					<rect x="236.5" y="188.3" fill="#A86A3E" width="1.3" height="27.7"/>
				</g>
				<g>
					<ellipse fill="#90C04A" cx="241.6" cy="196.5" rx="5" ry="4.9"/>
					<rect x="241.3" y="199.3" fill="#A86A3E" width="0.7" height="16.2"/>
				</g>
				<g>
					<ellipse fill="#90C04A" cx="452.6" cy="199.7" rx="2.9" ry="2.5"/>
					<rect x="452.4" y="201.1" fill="#A86A3E" width="0.4" height="8.2"/>
				</g>
				<g>
					<ellipse fill="#90C04A" cx="464" cy="196.8" rx="3.8" ry="3.3"/>
					<rect x="463.7" y="198.7" fill="#A86A3E" width="0.5" height="10.7"/>
				</g>
				<g>
					<ellipse fill="#90C04A" cx="459.7" cy="189" rx="6.3" ry="5.4"/>
					<rect x="459.1" y="192" fill="#A86A3E" width="0.9" height="17.7"/>
				</g>
				<g>
					<ellipse fill="#689B10" cx="444.1" cy="178.2" rx="9.6" ry="8.1"/>
					<rect x="443.2" y="182.7" fill="#A86A3E" width="1.4" height="26.7"/>
				</g>
				<g>
					<ellipse fill="#90C04A" cx="251.8" cy="183" rx="8.8" ry="8.4"/>
					<ellipse fill="#689B10" cx="251.8" cy="183" rx="6.6" ry="6.3"/>
					<rect x="251.4" y="187.7" fill="#A86A3E" width="1.3" height="27.7"/>
				</g>
			</g>
		</g>
	</g>
</g>
</svg>
